<?xml version="1.0" standalone="no"?>
<!DOCTYPE svg PUBLIC "-//W3C//DTD SVG 1.1//EN" "http://www.w3.org/Graphics/SVG/1.1/DTD/svg11.dtd" >
<svg xmlns="http://www.w3.org/2000/svg">
<metadata>Generated by IcoMoon</metadata>
<defs>
<font id="icomoon" horiz-adv-x="1024">
<font-face units-per-em="1024" ascent="960" descent="-64" />
<missing-glyph horiz-adv-x="1024" />
<glyph unicode="&#x20;" d="" horiz-adv-x="512" />
<glyph unicode="&#x21;" d="M578.56 499.2q19.456 0 25.088-12.8t5.632-38.4q0-17.408-1.536-26.624t-8.704-16.896-20.48-7.68h-215.040v-215.040q0-19.456-12.8-25.088t-38.4-5.632q-17.408 0-26.624 1.536t-16.896 8.704-7.68 20.48v215.040h-215.040q-19.456 0-25.088 12.8t-5.632 38.4q0 17.408 1.536 26.624t8.704 16.896 20.48 7.68h215.040v215.040q0 19.456 12.8 25.088t38.4 5.632q17.408 0 26.624-1.536t16.896-8.704 7.68-20.48v-215.040h215.040z" horiz-adv-x="624" />
<glyph unicode="&#x22;" d="M967.68 755.2q29.696 0 50.688-21.504t20.992-50.176v-471.040q0-28.672-20.992-50.176t-50.688-21.504h-880.64q-29.696 0-50.688 21.504t-20.992 50.176v471.040q0 28.672 20.992 50.176t50.688 21.504h880.64zM578.56 652.8v-102.4h102.4v102.4h-102.4zM732.16 499.2h-102.4v-102.4h102.4v102.4zM424.96 652.8v-102.4h102.4v102.4h-102.4zM578.56 499.2h-102.4v-102.4h102.4v102.4zM271.36 652.8v-102.4h102.4v102.4h-102.4zM424.96 499.2h-102.4v-102.4h102.4v102.4zM117.76 652.8v-102.4h102.4v102.4h-102.4zM271.36 499.2h-102.4v-102.4h102.4v102.4zM220.16 243.2v102.4h-102.4v-102.4h102.4zM783.36 243.2v102.4h-512v-102.4h512zM936.96 243.2v102.4h-102.4v-102.4h102.4zM783.36 396.8h102.4v102.4h-102.4v-102.4zM936.96 550.4v102.4h-204.8v-102.4h204.8z" horiz-adv-x="1052" />
<glyph unicode="&#x23;" d="M589.824 925.184h114.688v-110.592q0-117.76-83.968-201.728l-323.584-321.536q-45.056-46.080-49.152-108.544h113.664l-171.008-172.032-172.032 172.032h115.712q6.144 113.664 81.92 189.44l323.584 321.536q50.176 51.2 50.176 120.832v110.592zM702.464 182.784h115.712l-171.008-172.032-172.032 172.032h113.664q-4.096 62.464-49.152 108.544l-64.512 63.488 81.92 80.896 63.488-63.488q75.776-75.776 81.92-189.44z" horiz-adv-x="834" />
<glyph unicode="&#x24;" d="M15.36 243.2l235.52 409.6 235.52-409.6h-471.040z" horiz-adv-x="498" />
<glyph unicode="&#x25;" d="M15.36 683.52l409.6-235.52-409.6-235.52v471.040z" horiz-adv-x="438" />
<glyph unicode="&#x26;" d="M486.4 652.8l-235.52-409.6-235.52 409.6h471.040z" horiz-adv-x="498" />
<glyph unicode="&#x27;" d="M424.96 683.52v-471.040l-409.6 235.52z" horiz-adv-x="438" />
<glyph unicode="&#x28;" d="M475.648 696.832q94.72 0 161.792-67.072t67.072-161.792-67.072-161.792-161.792-67.072-161.792 67.072-67.072 161.792 67.072 161.792 161.792 67.072zM533.504 868.864q0-24.576-17.408-41.472t-40.448-16.896-39.936 16.896-16.896 41.472 16.896 40.448 39.424 15.872q24.576 0 41.472-16.384t16.896-39.936zM133.12 754.176q0 56.32 57.344 56.32 56.32 0 56.32-56.32 0-57.344-56.32-57.344-57.344 0-57.344 57.344zM75.776 525.824q23.552 0 40.448-16.384t16.896-40.96-16.384-40.96-40.96-16.384-40.96 16.896-16.384 40.448q0 24.576 16.384 40.96t40.96 16.384zM133.12 182.784q0 56.32 57.344 56.32 56.32 0 56.32-56.32 0-57.344-56.32-57.344-57.344 0-57.344 57.344zM418.816 69.12q0 22.528 16.896 39.424t39.424 16.896q24.576 0 41.472-16.896t16.896-39.936-17.408-40.448-40.448-17.408-39.936 16.896-16.896 41.472zM721.408 142.336q-15.872 15.872-15.872 39.424t15.872 40.448 40.448 16.896 40.448-16.896 15.872-40.448-15.872-39.424-40.448-15.872-40.448 15.872zM876.544 411.136q-24.576 0-41.472 16.896t-16.896 40.448q0 24.576 17.408 40.96t40.448 16.384 39.936-16.384 16.896-40.96-16.896-40.96-39.424-16.384zM802.304 713.728q-15.872-16.896-40.448-16.896t-40.448 16.896-15.872 40.448 15.872 40.96 40.448 17.408 40.448-17.408 15.872-40.96-15.872-40.448z" horiz-adv-x="948" />
<glyph unicode="&#x29;" d="M704.512 640.512q94.208 0 161.28-67.072t67.072-161.792-67.072-161.792-161.28-67.072h-457.728q-94.208 0-161.28 67.072t-67.072 161.792 67.072 161.792 161.28 67.072q1.024 0 30.72-4.096 30.72 54.272 82.944 86.016t114.688 31.744q61.44 0 115.2-32.256t83.456-85.504q28.672 4.096 30.72 4.096zM704.512 297.472q46.080 0 79.872 33.792t33.792 80.384-33.792 80.384-80.384 33.792-80.384-33.792-33.792-80.896h-114.688q0 113.664 91.136 182.272-33.792 47.104-91.136 47.104-46.080 0-79.872-33.792t-33.792-80.896q0-22.528 7.168-40.96l-106.496-38.912q-15.36 36.864-15.36 77.824-45.056-2.048-79.36-34.304t-34.304-78.336 33.792-79.872 79.872-33.792h457.728z" horiz-adv-x="948" />
<glyph unicode="&#x2a;" d="M475.648 925.184q188.928 0 323.072-134.144t134.144-322.56h-114.688q0 16.384-12.8 29.696t-30.208 13.312-30.208-13.312-12.8-29.696h-113.664q0 16.384-13.312 29.696t-30.208 13.312-29.184-13.312-12.288-29.696v-285.696q0-70.656-50.688-121.344t-121.856-50.688-120.832 50.688-49.664 121.344h114.688q0-24.576 16.384-40.96t39.936-16.384q24.576 0 40.96 16.384t16.384 40.96v285.696q0 16.384-12.8 29.696t-30.208 13.312-30.208-13.312-12.8-29.696h-113.664q0 16.384-13.312 29.696t-30.208 13.312-29.696-13.312-12.8-29.696h-114.688q0 188.416 134.144 322.56t323.072 134.144z" horiz-adv-x="948" />
<glyph unicode="&#x2b;" d="M0 235.008v485.376q0 32.768 12.8 62.464t34.304 51.2 51.2 34.816 63.488 13.312h566.272q13.312 0 26.624-3.072l-98.304-98.304h-494.592q-24.576 0-42.496-17.92t-17.92-42.496v-485.376q0-24.576 17.92-42.496t42.496-17.92h566.272q24.576 0 41.984 17.92t17.408 42.496v171.008l101.376 101.376v-272.384q0-33.792-12.8-62.464t-34.816-51.2-51.2-35.328-61.952-12.8h-566.272q-33.792 0-63.488 12.8t-51.2 35.328-34.304 51.2-12.8 62.464zM202.752 582.144q0 17.408 11.264 28.672l52.224 52.224q12.288 12.288 29.184 12.288t29.184-12.288l179.2-179.2 343.040 345.088q12.288 12.288 30.208 12.288t29.184-12.288l52.224-51.2q11.264-12.288 11.264-29.696t-11.264-28.672l-373.76-374.784-52.224-51.2q-12.288-12.288-29.184-12.288t-29.184 12.288l-52.224 51.2-207.872 208.896q-11.264 11.264-11.264 28.672z" horiz-adv-x="966" />
<glyph unicode="&#x2c;" d="M475.648 582.144q-46.592 0-80.384-33.792t-33.792-80.384 33.792-80.384 80.384-33.792 80.384 33.792 33.792 80.384-33.792 80.384-80.384 33.792zM475.648 696.832q94.72 0 161.792-67.072t67.072-161.792-67.072-161.792-161.792-67.072-161.792 67.072-67.072 161.792 67.072 161.792 161.792 67.072zM418.816 868.864q0 56.32 56.32 56.32 58.368 0 58.368-56.32 0-58.368-58.368-58.368-56.32 0-56.32 58.368zM133.12 754.176q0 56.32 57.344 56.32 56.32 0 56.32-56.32 0-57.344-56.32-57.344-57.344 0-57.344 57.344zM75.776 525.824q23.552 0 40.448-16.384t16.896-40.96-16.384-40.96-40.96-16.384-40.96 16.896-16.384 40.448q0 24.576 16.384 40.96t40.96 16.384zM133.12 182.784q0 56.32 57.344 56.32 56.32 0 56.32-56.32 0-57.344-56.32-57.344-57.344 0-57.344 57.344zM418.816 69.12q0 22.528 16.896 39.424t39.424 16.896q24.576 0 41.472-16.896t16.896-39.936-17.408-40.448-40.448-17.408-39.936 16.896-16.896 41.472zM721.408 142.336q-15.872 15.872-15.872 39.424t15.872 40.448 40.448 16.896 40.448-16.896 15.872-40.448-15.872-39.424-40.448-15.872-40.448 15.872zM876.544 411.136q-24.576 0-41.472 16.896t-16.896 40.448q0 24.576 17.408 40.96t40.448 16.384 39.936-16.384 16.896-40.96-16.896-40.96-39.424-16.384zM802.304 713.728q-15.872-16.896-40.448-16.896t-40.448 16.896-15.872 40.448 15.872 40.96 40.448 17.408 40.448-17.408 15.872-40.96-15.872-40.448z" horiz-adv-x="948" />
<glyph unicode="&#x2d;" d="M186.368 663.040q-53.248-83.968-53.248-185.344 0-144.384 102.912-248.32t249.344-103.936q100.352 0 185.344 54.272-191.488 18.432-328.704 155.136t-155.648 328.192zM356.352 925.184q-57.344-102.4-57.344-209.92 0-176.128 124.416-300.032t299.52-123.904q107.52 0 209.92 57.344-43.008-148.48-166.4-243.2t-281.088-94.72q-192.512 0-329.728 136.704t-137.216 330.24q0 157.696 94.72 281.088t243.2 166.4z" horiz-adv-x="948" />
<glyph unicode="&#x2e;" d="M0 194.048q0 25.6 11.776 48.128t32.256 38.4 48.64 25.6 58.88 9.728q14.336 0 26.624-2.048t24.576-5.12v417.792l538.624 155.648v-566.272q0-24.576-11.776-46.592t-32.256-38.912-48.64-26.624-59.392-9.728-58.368 9.728-47.616 26.624-32.768 38.912-12.288 46.592 12.288 46.592 32.768 38.4 47.616 26.112 58.88 9.728q25.6 0 50.176-6.144v267.264l-335.872-97.28v-406.528q0-24.576-11.776-46.592t-32.256-38.4-48.64-26.112-59.392-9.728-59.392 9.728-48.64 26.112-32.256 38.4-11.776 46.592z" horiz-adv-x="738" />
<glyph unicode="&#x2f;" d="M994.304 65.024q11.264-18.432-1.024-35.328t-30.72-16.896h-911.36q-18.432 0-30.72 16.896t-1.024 35.328l456.704 800.768q9.216 17.408 30.72 17.408t30.72-17.408zM569.344 115.2v102.4h-124.928v-102.4h124.928zM569.344 294.4v307.2h-124.928v-307.2h124.928z" horiz-adv-x="1010" />
<glyph unicode="&#x30;" d="M932.864 925.184l-399.36-456.704 171.008-114.688-686.080-343.040 400.384 343.040-172.032 114.688z" horiz-adv-x="948" />
<glyph unicode="&#x31;" d="M647.68 810.496q-71.168 0-121.856-49.664t-50.688-120.32q0-14.336 4.096-32.768l11.264-58.368-179.2-179.2-178.176-177.152v-67.584h113.664v113.664h114.688v114.688h113.664v48.128l81.92 80.896 58.368-11.264q18.432-3.072 31.744-3.072 71.68 0 121.344 50.176t49.664 121.344-49.664 120.832-120.832 49.664zM647.68 925.184q118.272 0 201.728-83.456t83.456-201.728-83.456-202.24-202.24-83.968q-28.672 0-52.224 5.12l-5.12-5.12v-114.688h-114.688v-113.664h-113.664v-114.688h-343.040v228.352l348.16 348.16q-5.12 23.552-5.12 53.248 0 117.76 83.968 201.216t202.24 83.456zM589.824 640.512q0 56.32 57.344 56.32t57.344-56.32q0-58.368-57.344-58.368t-57.344 58.368z" horiz-adv-x="948" />
<glyph unicode="&#x32;" d="M704.512 754.176q94.208 0 161.28-67.072t67.072-161.28-67.072-161.28-161.28-67.072h-457.728q-94.208 0-161.28 67.072t-67.072 161.28 67.072 161.28 161.28 67.072q1.024 0 30.72-3.072 30.72 53.248 82.944 85.504t114.688 32.256q61.44 0 115.2-32.768t83.456-84.992q28.672 3.072 30.72 3.072zM704.512 411.136q46.080 0 79.872 33.792t33.792 80.896-33.792 80.896-80.384 33.792-80.384-33.792-33.792-80.896h-114.688q0 111.616 92.16 182.272-33.792 46.080-92.16 46.080-46.080 0-79.872-33.792t-33.792-79.872q0-22.528 7.168-40.96l-106.496-38.912q-15.36 36.864-15.36 76.8-45.056-1.024-79.36-33.792t-34.304-77.824q0-47.104 33.792-80.896t79.872-33.792h457.728zM111.616 84.48q-15.36-15.36-38.4-15.36t-38.912 15.872-15.872 38.4 16.384 38.912q9.216 9.216 48.128 28.672t72.704 33.792l34.816 14.336q-57.344-133.12-78.848-154.624zM339.968 84.48q-15.36-15.36-37.376-15.36t-39.424 15.36q-16.384 16.384-16.384 38.912t16.384 38.912q9.216 9.216 48.64 28.672t74.24 33.792l32.768 14.336q-56.32-133.12-78.848-154.624zM569.344 84.48q-16.384-15.36-38.912-15.36t-38.912 15.872-16.384 38.4 16.384 38.912q10.24 9.216 48.64 28.672t73.216 33.792l33.792 14.336q-57.344-133.12-77.824-154.624z" horiz-adv-x="948" />
<glyph unicode="&#x33;" d="M0 495.104v90.112q0 7.168 5.12 7.168 15.36 4.096 31.744 6.144l32.768 4.096q5.12 0 8.192 0.512t7.168 0.512q6.144 22.528 18.432 45.056-9.216 15.36-21.504 30.72l-24.576 29.696q-5.12 6.144 0 10.24 15.36 18.432 32.256 35.84t35.328 32.768q6.144 4.096 10.24-1.024 8.192-8.192 18.432-15.36l18.432-14.336 23.552-16.384q22.528 11.264 45.056 18.432 2.048 22.528 4.608 41.984t6.656 37.888q0 5.12 7.168 5.12h90.112q7.168 0 7.168-6.144 3.072-15.36 5.632-31.232t4.608-32.256l2.048-15.36q21.504-7.168 44.032-18.432l20.48 15.36 21.504 15.36q10.24 8.192 19.456 16.384 6.144 4.096 10.24-1.024 5.12-4.096 9.216-8.192l32.768-32.768 24.576-26.624q3.072-6.144 0-10.24-11.264-11.264-22.528-25.6l-23.552-33.792q6.144-11.264 11.264-23.552l9.216-23.552q8.192-2.048 18.432-3.072t21.504-3.072l19.456-2.048q9.216-1.024 17.408-4.096 7.168-2.048 7.168-7.168v-90.112q0-6.144-6.144-8.192-14.336-3.072-31.744-5.12l-32.768-4.096q-4.096 0-14.336-2.048-7.168-21.504-18.432-44.032 9.216-15.36 20.992-30.72t25.088-29.696q4.096-6.144 0-10.24-15.36-18.432-32.256-35.84t-35.328-32.768q-7.168-4.096-10.24 1.024-8.192 7.168-17.92 14.848t-19.968 13.824q-5.12 6.144-11.264 9.728t-11.264 7.68q-22.528-11.264-45.056-18.432-2.048-18.432-4.096-39.424t-8.192-40.448q-2.048-5.12-7.168-5.12h-90.112q-7.168 0-7.168 5.12-3.072 15.36-5.12 31.744l-4.096 31.744-2.048 16.384q-21.504 7.168-44.032 18.432l-10.24-7.168q-5.12-3.072-10.24-8.192l-21.504-15.36q-10.24-8.192-19.456-16.384-7.168-4.096-10.24 1.024-5.12 4.096-8.192 8.192l-10.24 9.216-24.576 22.528q-12.288 12.288-23.552 27.648-4.096 4.096 0 9.216 12.288 14.336 24.064 30.208t20.992 30.208q-10.24 21.504-19.456 47.104-8.192 2.048-18.432 3.072t-21.504 3.072l-19.456 2.048q-9.216 1.024-19.456 3.072-5.12 3.072-5.12 8.192zM211.968 539.136q0-37.888 27.136-65.024t65.024-27.136 64.512 27.136 26.624 65.024-26.624 64.512-64.512 26.624-65.024-26.624-27.136-64.512zM565.248 275.968q-3.072 6.144 4.096 9.216l22.528 8.192q10.24 4.096 22.528 8.192 1.024 6.144 1.536 10.24t2.56 9.728 3.584 9.216 4.608 8.704q-8.192 11.264-14.336 21.504t-13.312 20.48q-3.072 6.144 2.048 9.216l67.584 60.416q4.096 4.096 9.216 1.024l18.432-15.36 19.456-16.384q19.456 8.192 37.888 9.216 5.12 11.264 11.264 22.016t11.264 20.992q3.072 5.12 8.192 3.072l87.040-26.624q5.12-3.072 5.12-9.216-2.048-11.264-4.608-23.040t-4.608-23.040q9.216-6.144 15.36-13.824t12.288-16.896q12.288 1.024 24.064 1.536t24.064 0.512q5.12 0 7.168-5.12l19.456-89.088q2.048-5.12-4.096-8.192-11.264-5.12-21.504-9.216l-23.552-7.168q-1.024-6.144-1.536-10.24t-2.56-9.728-4.096-9.216-4.096-7.68l15.36-21.504 12.288-20.48q2.048-5.12-2.048-9.216l-67.584-61.44q-4.096-4.096-9.216 0-9.216 8.192-18.944 15.36t-17.92 15.36q-21.504-8.192-39.936-9.216l-10.24-22.528-11.264-20.48q-3.072-5.12-8.192-3.072l-87.040 26.624q-5.12 3.072-5.12 9.216 2.048 11.264 3.584 23.552t4.608 23.552q-15.36 13.312-26.624 29.696-12.288-2.048-25.088-3.072t-24.064 1.024q-5.12 0-8.192 5.12zM603.136 727.552q0 5.12 6.144 8.192 10.24 2.048 20.992 4.608t22.016 4.608q2.048 4.096 3.072 8.704t3.072 8.704 5.12 7.168 5.12 8.192q-6.144 10.24-10.24 20.48l-8.192 20.48q-2.048 4.096 2.048 8.192l68.608 45.056q5.12 3.072 9.216-1.024 8.192-7.168 15.36-15.36l14.336-16.384q17.408 3.072 35.84 3.072 12.288 19.456 25.6 34.816 3.072 4.096 9.216 3.072l73.728-36.864q5.12-3.072 3.072-9.216-2.048-10.24-5.632-19.968t-6.656-20.992q10.24-13.312 19.456-30.72 11.264-1.024 22.528-1.536t22.528-2.56q5.12-2.048 5.12-7.168l5.12-82.944q0-4.096-5.12-6.144-10.24-2.048-20.48-5.12l-22.528-5.12q-2.048-4.096-3.072-7.68t-3.072-7.68q-3.072-8.192-9.216-15.36 6.144-11.264 10.24-21.504t8.192-19.456q2.048-5.12-3.072-8.192l-67.584-46.080q-6.144-3.072-9.216 1.024-13.312 13.312-29.696 32.768-9.216-2.048-18.432-3.072t-18.432 0q-6.144-10.24-12.288-19.456l-13.312-17.408q-3.072-3.072-9.216-1.024l-73.728 36.864q-6.144 2.048-3.072 7.168l6.144 21.504q3.072 10.24 7.168 20.48-6.144 6.144-11.264 13.824t-9.216 16.896q-11.264 1.024-22.528 1.536t-22.528 2.56q-5.12 0-5.12 6.144zM709.632 292.352q-8.192-23.552 3.072-45.568t36.864-30.208q23.552-8.192 45.568 3.072t29.184 35.84q9.216 23.552-2.048 45.568t-36.864 31.232q-23.552 7.168-45.568-4.096t-30.208-35.84zM733.696 681.472q7.68-21.504 28.16-32.768 21.504-9.216 43.008-2.048t31.744 27.648q10.24 21.504 3.072 43.008t-27.648 30.72q-20.48 11.264-41.984 3.584t-32.768-28.16-3.584-41.984z" horiz-adv-x="966" />
<glyph unicode="&#x34;" d="M721.92 349.696l263.168-272.384h-806.912l264.192 269.312 139.264-130.048zM192.512 713.216h778.24l-389.12-369.664zM772.096 396.8l263.168 247.808v-520.192zM128 124.416v520.192l265.216-248.832z" horiz-adv-x="1160" />
<glyph unicode="&#x35;" d="M0 235.008v485.376q0 32.768 12.8 62.464t34.304 51.2 51.2 34.816 63.488 13.312h566.272q2.048 0 5.12-0.512t5.12-0.512l-100.352-100.352h-476.16q-24.576 0-42.496-17.92t-17.92-42.496v-485.376q0-24.576 17.92-42.496t42.496-17.92h566.272q24.576 0 41.984 17.92t17.408 42.496v234.496l101.376 100.352v-334.848q0-33.792-12.8-62.464t-34.816-51.2-51.2-35.328-61.952-12.8h-566.272q-33.792 0-63.488 12.8t-51.2 35.328-34.304 51.2-12.8 62.464zM331.776 244.224l57.344 173.056 343.040 343.040 115.712-116.736-342.016-343.040zM455.68 403.968q3.072-4.096 8.704-4.096t8.704 4.096l269.312 268.288q10.24 10.24 0.512 18.944t-18.944-0.512l-268.288-268.288q-9.216-9.216 0-18.432zM790.528 818.688l48.128 49.152q15.36 15.36 35.84 15.36t33.792-15.36l24.576-23.552 23.552-23.552q13.312-15.36 13.824-35.328t-13.824-35.328l-50.176-48.128z" horiz-adv-x="966" />
<glyph unicode="&#x36;" d="M926.72 865.792q36.864-36.864 35.328-84.48t-39.424-85.504l-47.104-47.104q4.096 6.144 7.68 17.408t-4.608 44.544-40.96 65.024q-29.696 29.696-60.928 38.4t-49.664 3.584l-16.384-5.12 49.152 50.176q33.792 34.816 84.48 35.328t82.432-32.256zM835.584 609.792l-503.808-504.832-215.040-52.224-4.096 4.096 56.32 215.040 504.832 501.76q30.72 8.192 61.44 2.048l-535.552-534.528-15.36-57.344 61.44-61.44 57.344 16.384 25.6 23.552 3.072 58.368-40.96 40.96 489.472 489.472q8.192-6.144 16.384-15.36 31.744-31.744 41.984-62.976t3.072-48.64z" horiz-adv-x="1028" />
<glyph unicode="&#x37;" d="M379.904 351.744l61.44 120.832 232.448 231.424q20.48-12.288 34.304-26.624t27.136-34.816l-232.448-231.424-119.808-61.44zM69.632 42.496l114.688 454.656 243.712 241.664q81.92 22.528 167.936 0l-210.944-209.92-153.6-79.872-32.768-181.248 99.328-100.352 181.248 34.816 78.848 153.6 214.016 214.016q11.264-48.128 10.752-86.016t-6.656-62.464l-7.168-24.576-241.664-243.712-455.68-114.688z" horiz-adv-x="832" />
<glyph unicode="&#x38;" d="M0 477.696q0 83.968 31.744 157.184t86.528 128.512 128.512 87.040 157.696 31.744 157.184-31.744 128-87.040 86.528-128.512 31.744-157.184-31.744-157.184-86.528-128.512-128-87.040-157.184-31.744-157.696 31.744-128.512 87.040-86.528 128.512-31.744 157.184zM120.832 452.096q0-10.24 7.168-17.408l161.792-161.792q8.192-6.144 19.968-11.776t22.016-5.632h27.648q10.24 0 22.016 5.632t19.968 11.776l278.528 279.552q8.192 7.168 8.192 17.408t-8.192 16.384l-53.248 54.272q-7.168 7.168-17.408 7.168t-17.408-7.168l-228.352-229.376q-8.192-8.192-18.432-8.192t-16.384 8.192l-111.616 111.616q-8.192 8.192-18.432 8.192t-16.384-8.192l-54.272-52.224q-7.168-8.192-7.168-18.432z" horiz-adv-x="804" />
<glyph unicode="&#x39;" d="M1.024 608.768q-5.12 19.456 5.12 37.888l37.888 65.536q11.264 18.432 31.232 23.552t38.4-5.12l174.080-101.376v201.728q0 21.504 14.336 36.352t36.864 14.848h73.728q21.504 0 36.352-14.848t14.848-35.328v-202.752l174.080 101.376q18.432 10.24 38.4 5.12t31.232-23.552l35.84-65.536q11.264-18.432 6.144-37.888t-23.552-29.696l-175.104-101.376 175.104-101.376q18.432-11.264 23.552-30.208t-5.12-37.376l-36.864-66.56q-11.264-17.408-31.232-22.528t-38.4 5.12l-174.080 101.376v-201.728q0-21.504-14.848-36.352t-36.352-14.848h-73.728q-22.528 0-36.864 14.848t-14.336 35.328v202.752l-174.080-101.376q-18.432-11.264-38.4-5.632t-31.232 23.040l-37.888 66.56q-9.216 18.432-4.608 37.376t23.040 30.208l176.128 101.376-176.128 101.376q-18.432 10.24-23.552 29.696z" horiz-adv-x="748" />
<glyph unicode="&#x3a;" d="M0 477.696q0 83.968 31.744 157.184t86.528 128.512 128.512 87.040 157.696 31.744 157.184-31.744 128-87.040 86.528-128.512 31.744-157.184-31.744-157.184-86.528-128.512-128-87.040-157.184-31.744-157.696 31.744-128.512 87.040-86.528 128.512-31.744 157.184zM340.992 733.696l6.144-373.76q2.048-15.36 16.384-15.36h81.92q14.336 0 14.336 15.36l8.192 373.76q1.024 6.144-4.096 11.264-4.096 4.096-11.264 4.096h-97.28q-7.168 0-10.24-4.096-4.096-4.096-4.096-11.264zM344.064 208.384q0-15.36 15.36-15.36h91.136q5.12 0 10.24 4.096t5.12 11.264v88.064q0 6.144-5.12 10.752t-10.24 4.608h-91.136q-15.36 0-15.36-15.36v-88.064z" horiz-adv-x="804" />
<glyph unicode="&#x3b;" d="M445.44 878.080q178.176 0 304.128-125.952t125.952-304.128-125.952-304.128-304.128-125.952-304.128 125.952-125.952 304.128 125.952 304.128 304.128 125.952zM497.664 395.776h206.848l-1.024 104.448h-205.824v205.824h-104.448v-205.824h-206.848v-104.448h206.848v-206.848h104.448v206.848z" horiz-adv-x="888" />
<glyph unicode="&#x3c;" d="M883.712 875.008q6.144-6.144 9.216-12.288t2.56-14.848-2.048-15.872-7.68-19.968-12.288-24.064l-16.384-30.72-18.432-37.888q-55.296-115.712-150.528-293.888l-161.792-299.008-66.56-119.808-55.296 389.12-389.12 55.296q452.608 253.952 712.704 378.88l37.888 18.432 30.72 16.384q11.264 6.144 24.064 12.288t19.968 7.68 15.872 2.048 14.848-2.56 12.288-9.216zM790.528 774.656l-311.296-285.696 28.672-238.592z" horiz-adv-x="908" />
<glyph unicode="&#x3d;" d="M567.296 346.624q-82.944 0-139.776-4.096t-121.856-18.432-112.64-40.448-94.208-72.192-83.456-111.616q2.048 10.24 6.656 28.16t24.064 69.632 44.544 98.816 70.656 104.96 99.84 99.328 134.144 69.632 172.032 28.16v197.632l369.664-330.752-369.664-342.016v223.232z" horiz-adv-x="950" />
<glyph unicode="&#x3e;" d="M559.104 867.84q173.056 0 295.936-122.88t122.88-296.96-122.88-296.96-295.936-122.88q-143.36 0-257.024 89.088l71.68 76.8q84.992-61.44 185.344-61.44 130.048 0 222.208 92.672t92.16 222.72-92.16 222.208-222.208 92.16q-126.976 0-218.112-88.576t-95.232-215.552h146.432l-188.416-209.92-188.416 209.92h125.952q4.096 171.008 125.952 290.304t291.84 119.296z" horiz-adv-x="992" />
<glyph unicode="&#x3f;" d="M434.176 867.84q169.984 0 291.84-119.296t125.952-290.304h125.952l-188.416-209.92-188.416 209.92h146.432q-4.096 126.976-95.232 215.552t-218.112 88.576q-130.048 0-222.208-92.16t-92.16-222.208 92.16-222.72 222.208-92.672q100.352 0 185.344 61.44l71.68-76.8q-113.664-89.088-257.024-89.088-173.056 0-295.936 122.88t-122.88 296.96 122.88 296.96 295.936 122.88z" horiz-adv-x="992" />
<glyph unicode="&#x40;" d="M0.512 274.944q4.608 12.288 29.184 12.288h102.4v380.928h-102.4q-24.576 0-29.184 11.264t12.8 28.672l161.792 162.816q10.24 11.264 27.648 11.264 16.384 0 26.624-11.264l161.792-162.816q17.408-16.384 12.288-28.16t-29.696-11.776h-102.4v-380.928h102.4q24.576 0 29.696-11.264t-12.288-28.672l-161.792-162.816q-10.24-11.264-27.648-11.264-16.384 0-26.624 11.264l-161.792 162.816q-17.408 15.36-12.8 27.648z" horiz-adv-x="400" />
<glyph unicode="&#x41;" d="M0 458.24q0 16.384 11.264 26.624l161.792 162.816q16.384 16.384 28.16 11.776t11.776-29.184v-103.424h381.952v103.424q0 24.576 11.264 29.184t28.672-12.8l162.816-161.792q10.24-10.24 10.24-26.624t-10.24-26.624l-162.816-162.816q-16.384-17.408-28.16-12.288t-11.776 29.696v103.424h-381.952v-103.424q0-24.576-11.264-29.184t-28.672 12.8l-161.792 161.792q-11.264 10.24-11.264 26.624z" horiz-adv-x="804" />
<glyph unicode="&#x42;" d="M0 110.080v104.448q0 15.36 10.752 26.112t26.112 10.752h735.232q14.336 0 25.088-10.752t10.752-26.112v-104.448q0-15.36-10.752-26.112t-25.088-10.752h-735.232q-15.36 0-26.112 10.752t-10.752 26.112zM3.072 385.536q-9.216 23.552 8.192 39.936l366.592 367.616q11.264 11.264 26.112 11.264t26.112-11.264l367.616-367.616q17.408-16.384 7.168-39.936-8.192-22.528-32.768-22.528h-735.232q-24.576 0-33.792 22.528z" horiz-adv-x="804" />
<glyph unicode="&#x43;" d="M373.76 499.2q21.504 0 36.352-14.848t14.848-36.352-14.848-36.352-36.352-14.848h-307.2q-21.504 0-36.352 14.848t-14.848 36.352 14.848 36.352 36.352 14.848h307.2zM373.76 294.4q21.504 0 36.352-14.848t14.848-36.352-14.848-36.352-36.352-14.848h-307.2q-21.504 0-36.352 14.848t-14.848 36.352 14.848 36.352 36.352 14.848h307.2zM1008.64 499.2q19.456 0 25.088-12.8t5.632-38.4q0-17.408-1.536-26.624t-8.704-16.896-20.48-7.68h-174.080v-174.080q0-19.456-12.8-25.088t-38.4-5.632q-17.408 0-26.624 1.536t-16.896 8.704-7.68 20.48v174.080h-168.96q-19.456 0-25.088 12.8t-5.632 38.4q0 17.408 1.536 26.624t8.704 16.896 20.48 7.68h168.96v174.080q0 19.456 12.8 25.088t38.4 5.632q17.408 0 26.624-1.536t16.896-8.704 7.68-20.48v-174.080h174.080zM373.76 704q21.504 0 36.352-14.848t14.848-36.352-14.848-36.352-36.352-14.848h-307.2q-21.504 0-36.352 14.848t-14.848 36.352 14.848 36.352 36.352 14.848h307.2z" horiz-adv-x="1052" />
<glyph unicode="&#x44;" d="M649.216 220.672q91.136-32.768 138.24-66.56t47.104-59.392v-107.52h-819.2v205.824q13.312 6.144 30.208 11.776t32.768 10.24 19.968 5.632q96.256 34.816 132.608 70.656t36.352 97.28q0 20.48-10.24 32.256t-24.576 32.256-21.504 59.392q-2.048 12.288-9.728 17.92t-14.848 8.192-14.336 17.408-9.216 44.544q0 15.36 4.608 26.112t8.704 13.824l5.12 3.072q-9.216 51.2-13.312 90.112-2.048 21.504 5.632 48.64t28.16 56.832 65.024 49.664 107.008 19.968 107.008-19.968 65.024-49.664 28.16-56.832 5.632-48.64l-13.312-90.112q18.432-8.192 18.432-43.008-2.048-29.696-9.216-44.544t-14.336-17.408-14.848-8.192-9.728-17.92q-7.168-38.912-21.504-59.392t-24.576-32.256-10.24-32.256q0-61.44 36.352-97.28t132.608-70.656zM885.76 499.2h153.6v-102.4h-153.6v-153.6h-102.4v153.6h-153.6v102.4h153.6v153.6h102.4v-153.6z" horiz-adv-x="1052" />
<glyph unicode="&#x45;" d="M0.512 574.464q4.608 13.824 27.136 17.92l257.024 35.84 113.664 233.472q10.24 20.48 25.6 20.48v-683.008l-228.352-120.832q-22.528-10.24-34.304-1.536t-6.656 32.256l44.032 253.952-185.344 181.248q-17.408 16.384-12.8 30.208z" horiz-adv-x="420" />
<glyph unicode="&#x46;" d="M0 477.696q0 83.968 31.744 157.184t86.528 128.512 128.512 87.040 157.696 31.744 157.184-31.744 128-87.040 86.528-128.512 31.744-157.184-31.744-157.184-86.528-128.512-128-87.040-157.184-31.744-157.696 31.744-128.512 87.040-86.528 128.512-31.744 157.184zM121.856 477.696q0-58.368 22.016-110.080t60.416-90.112 90.112-60.416 110.080-22.016 110.080 22.016 90.112 60.416 60.928 90.112 22.528 110.080-22.528 110.080-60.928 90.624-90.112 60.928-110.080 22.016-110.080-22.016-90.112-60.928-60.416-90.624-22.016-110.080zM167.936 452.608q0 8.704 5.12 13.824l57.344 57.344q6.144 5.12 14.336 5.12t15.36-5.12l89.088-90.112q14.336-13.312 28.672 0l171.008 171.008q6.144 5.12 14.848 5.12t13.824-5.12l57.344-57.344q5.12-5.12 5.12-13.824t-5.12-14.848l-206.848-206.848q-6.144-5.12-15.872-9.728t-18.944-4.608h-59.392q-8.192 0-17.92 4.608t-15.872 9.728l-126.976 125.952q-5.12 6.144-5.12 14.848z" horiz-adv-x="804" />
<glyph unicode="&#x47;" d="M0 477.696q0 83.968 31.744 157.184t86.528 128.512 128.512 87.040 157.696 31.744 157.184-31.744 128-87.040 86.528-128.512 31.744-157.184-31.744-157.184-86.528-128.512-128-87.040-157.184-31.744-157.696 31.744-128.512 87.040-86.528 128.512-31.744 157.184zM121.856 477.696q0-58.368 22.016-110.080t60.416-90.112 90.112-60.416 110.080-22.016 110.080 22.016 90.112 60.416 60.928 90.112 22.528 110.080-22.528 110.080-60.928 90.624-90.112 60.928-110.080 22.016-110.080-22.016-90.112-60.928-60.416-90.624-22.016-110.080zM228.352 575.488q0 8.704 5.12 14.848l57.344 57.344q7.168 6.144 15.36 6.144t14.336-6.144l83.968-83.968 83.968 83.968q6.144 6.144 14.848 6.144t13.824-6.144l57.344-57.344q5.12-6.144 5.12-14.848t-5.12-13.824l-83.968-83.968 83.968-83.968q13.312-15.36 0-29.696l-57.344-56.32q-14.336-13.312-28.672 0l-83.968 83.968-83.968-83.968q-6.144-6.144-14.336-6.144t-15.36 6.144l-57.344 56.32q-12.288 14.336 0 29.696l86.016 83.968-86.016 83.968q-5.12 5.12-5.12 13.824z" horiz-adv-x="804" />
<glyph unicode="&#x48;" d="M0 114.176v282.624q0 17.408 11.776 29.184t29.184 11.776h363.52q17.408 0 29.184-11.776t11.776-29.184v-282.624q0-17.408-11.776-29.184t-29.184-11.776h-363.52q-17.408 0-29.184 11.776t-11.776 29.184zM0 558.592v283.648q0 16.384 11.776 28.16t29.184 11.776h363.52q17.408 0 29.184-11.776t11.776-28.16v-283.648q0-17.408-11.776-28.672t-29.184-11.264h-363.52q-17.408 0-29.184 11.264t-11.776 28.672zM526.336 114.176v282.624q0 17.408 11.264 29.184t28.672 11.776h363.52q16.384 0 28.16-11.776t11.776-29.184v-282.624q0-17.408-11.776-29.184t-28.16-11.776h-363.52q-17.408 0-28.672 11.776t-11.264 29.184zM526.336 558.592v283.648q0 16.384 11.264 28.16t28.672 11.776h363.52q16.384 0 28.16-11.776t11.776-28.16v-283.648q0-17.408-11.776-28.672t-28.16-11.264h-363.52q-17.408 0-28.672 11.264t-11.264 28.672z" horiz-adv-x="966" />
<glyph unicode="&#x49;" d="M0 477.184q0 23.040 13.312 43.52 40.96 65.536 93.696 117.76t113.664 88.576 127.488 55.296 137.216 18.944q27.648 0 55.296-4.096t54.272-9.216l46.080 82.944q5.12 8.192 13.312 10.24 6.144 3.072 15.36-1.024l69.632-39.936q7.168-5.12 10.24-12.8t-1.024-15.872l-407.552-727.040q-4.096-8.192-12.288-10.24-2.048-1.024-5.12-1.024t-10.24 2.048l-70.656 39.936q-8.192 4.096-10.24 12.288t2.048 16.384l34.816 60.416q-76.8 34.816-141.824 93.184t-114.176 137.216q-13.312 19.456-13.312 42.496zM80.896 477.696q43.008-68.608 100.864-120.32t126.464-83.456l30.72 55.296q-46.080 32.768-73.216 83.456t-27.136 112.128q0 40.96 13.312 78.336t35.84 68.096q-61.44-31.744-114.176-80.384t-92.672-113.152zM323.584 524.8q0-11.264 8.704-20.48t21.504-9.216 21.504 9.216 8.704 20.48q0 40.96 27.648 69.12t68.608 28.16q13.312 0 22.016 9.216t8.704 20.48q0 13.312-8.704 22.016t-22.016 8.704q-31.744 0-60.928-12.288t-50.176-33.28-33.28-50.176-12.288-61.952zM488.448 154.112l46.080 83.968q109.568 13.312 200.704 76.288t153.6 163.328q-56.32 89.088-137.216 148.48l39.936 72.704q48.128-34.816 90.112-78.848t76.8-99.328q11.264-20.48 11.264-43.52t-11.264-42.496q-83.968-134.144-206.336-206.848t-263.68-73.728zM569.344 299.52l149.504 268.288q2.048-10.24 3.072-20.48t1.024-22.528q0-38.912-11.264-73.728t-31.744-64-49.152-51.712-61.44-35.84z" horiz-adv-x="966" />
<glyph unicode="&#x4a;" d="M0 585.216v234.496q0 25.6 18.432 44.032t44.032 18.432h233.472q26.624 0 58.368-12.8t49.152-31.232l346.112-386.048q16.384-18.432 16.896-44.544t-16.896-44.544l-272.384-270.336q-18.432-18.432-44.032-18.944t-44.032 18.944l-345.088 386.048q-17.408 19.456-30.72 50.176t-13.312 56.32zM101.376 720.384q0-24.576 17.92-42.496t42.496-17.92 42.496 17.92 17.92 42.496-17.92 42.496-42.496 17.92-42.496-17.92-17.92-42.496zM408.576 881.152h89.088q26.624 0 58.368-13.312t49.152-31.744l345.088-385.024q17.408-19.456 17.92-45.056t-17.92-44.032l-271.36-270.336q-18.432-18.432-44.032-18.944t-44.032 18.944l-6.144 7.168 264.192 264.192q18.432 18.432 17.92 44.544t-17.92 44.544l-344.064 386.048q-16.384 16.384-44.032 28.672t-52.224 14.336z" horiz-adv-x="964" />
<glyph unicode="&#x4b;" d="M352.256 679.424q0-36.864-25.6-62.464t-62.464-25.6-61.952 25.6-25.088 62.464 25.088 62.464 61.952 25.6 62.464-25.6 25.6-62.464zM18.432 925.184h379.904l534.528-534.528h-378.88v-379.904l-535.552 535.552v378.88zM355.328 822.784h-234.496v-234.496l331.776-331.776v236.544h234.496l-197.632 196.608z" horiz-adv-x="948" />
<glyph unicode="&#x4c;" d="M0 133.632v688.128q0 24.576 17.92 42.496t42.496 17.92h848.896q25.6 0 43.008-17.92t17.408-42.496v-688.128q0-24.576-17.408-42.496t-43.008-17.92h-848.896q-24.576 0-42.496 17.92t-17.92 42.496zM80.896 157.184h807.936v60.416h-807.936v-60.416zM80.896 676.352h807.936v121.856h-502.784l-8.192-49.152h-296.96v-72.704zM140.288 779.776h165.888v48.128h-165.888v-48.128zM292.864 445.952q0-39.936 15.36-74.752t40.96-60.416 60.928-40.96 75.264-15.36 74.752 15.36 60.928 40.96 40.96 60.416 14.848 74.752-14.848 75.264-40.96 60.928-60.928 40.96-74.752 15.36-75.264-15.36-60.928-40.96-40.96-60.928-15.36-75.264zM353.28 446.464q0 27.136 10.24 51.2t28.16 41.984 41.984 28.16 51.2 10.24 51.2-10.24 41.984-28.16 28.16-41.984 10.24-51.2-10.24-51.2-28.16-41.984-41.984-28.16-51.2-10.24-51.2 10.24-41.984 28.16-28.16 41.984-10.24 51.2zM391.168 445.952q0-8.192 6.656-14.848t14.848-6.656q10.24 0 16.384 6.656t6.144 14.848q0 21.504 14.848 35.84t35.328 14.336v1.024q9.216 0 15.872 6.656t6.656 14.848q0 9.216-6.656 15.872t-15.872 6.656q-38.912 0-66.56-28.16t-27.648-67.072z" horiz-adv-x="966" />
<glyph unicode="&#x4d;" d="M704.512 810.496q94.208 0 161.28-66.56t67.072-161.28-67.072-161.792-161.28-67.072h-171.008v-171.008h113.664l-172.032-172.032-169.984 172.032h113.664v171.008h-172.032q-94.208 0-161.28 67.072t-67.072 161.792 67.072 161.28 161.28 66.56q11.264 0 30.72-2.048 29.696 53.248 82.432 84.992t115.2 31.744q61.44 0 115.2-31.744t83.456-84.992q19.456 2.048 30.72 2.048zM704.512 468.48q46.080 0 79.872 33.792t33.792 80.384-33.792 80.384-80.384 33.792-80.384-33.792-33.792-80.896h-114.688q0 111.616 92.16 182.272-33.792 46.080-92.16 46.080-46.080 0-79.872-33.792t-33.792-79.872q0-21.504 7.168-39.936l-106.496-39.936q-15.36 36.864-15.36 78.848-45.056-2.048-79.36-34.816t-34.304-78.848 33.792-79.872 79.872-33.792h457.728z" horiz-adv-x="948" />
<glyph unicode="&#x4e;" d="M794.624 594.432q101.376 0 173.056-70.144t71.68-169.472-71.68-169.472-173.056-70.144h-195.584v194.56h107.52l-179.2 235.52-179.2-235.52h107.52v-194.56h-254.976q-76.8 0-131.072 53.248t-54.272 128 54.272 128 131.072 53.248q7.168 0 21.504-2.048-3.072 18.432-3.072 38.912 0 110.592 79.872 188.416t192.512 77.824q91.136 0 163.328-53.248t97.792-136.192q19.456 3.072 41.984 3.072z" horiz-adv-x="1052" />
<glyph unicode="&#x4f;" d="M936.96 99.84q-36.864 65.536-83.456 111.616t-94.208 72.192-112.64 40.448-121.856 18.432-139.776 4.096v-223.232l-369.664 342.016 369.664 330.752v-197.632q71.68 0 136.704-16.896t114.176-46.080 91.648-66.56 72.704-78.848 54.272-82.432 39.424-78.336 25.088-66.56 13.824-46.592z" horiz-adv-x="950" />
<glyph unicode="&#x50;" d="M385.024 658.944l-216.064-193.536 216.064-199.68v-142.336l-369.664 342.016 369.664 330.752v-137.216zM641.024 598.528q60.416 0 113.152-16.896t90.112-46.080 68.096-66.56 50.688-78.848 34.816-82.432 22.528-78.336 12.288-66.56 5.632-46.592l1.024-16.384q-37.888 66.56-74.752 111.616t-70.656 71.68-76.8 40.96-81.408 18.432-94.72 4.096v-223.232l-369.664 342.016 369.664 330.752v-197.632z" horiz-adv-x="1052" />
<glyph unicode="&#x51;" d="M1014.784 689.664q30.72 0 53.76-23.552t23.040-55.296v-375.808q0-31.744-23.040-55.296t-53.76-23.552h-77.824l34.816-156.672h-707.584l27.648 156.672h-84.992q-33.792 0-56.32 23.040t-22.528 55.808v375.808q0 32.768 22.528 55.808t56.32 23.040h99.328v120.832h33.792v131.072h540.672v-131.072h34.816v-120.832h99.328zM376.832 893.44v-297.984h467.968v297.984h-467.968zM261.12 495.104q23.552 0 39.936 16.384t16.384 38.912q0 21.504-16.384 38.4t-39.936 16.896q-21.504 0-38.4-16.896t-16.896-38.4q0-22.528 16.896-38.912t38.4-16.384zM325.632 47.616h580.608l-48.128 246.784h-495.616zM583.68 162.304v35.84h-142.336v-35.84h142.336zM786.432 162.304v35.84h-142.336v-35.84h142.336z" horiz-adv-x="1216" />
<glyph unicode="&#x52;" d="M732.16 806.4q41.984 0 72.192-30.208t30.208-72.192v-358.4q0-41.984-30.208-72.192t-72.192-30.208h-204.8v-153.6l-204.8 153.6h-204.8q-41.984 0-72.192 30.208t-30.208 72.192v358.4q0 41.984 30.208 72.192t72.192 30.208h614.4z" horiz-adv-x="848" />
<glyph unicode="&#x53;" d="M312.32 335.36h358.4q7.168 0 10.24 1.024v-93.184q0-41.984-30.208-72.192t-72.192-30.208h-256l-153.6-153.6v153.6h-51.2q-41.984 0-72.192 30.208t-30.208 72.192v307.2q0 41.984 30.208 72.192t72.192 30.208h194.56v-317.44zM936.96 908.8q41.984 0 72.192-30.208t30.208-72.192v-307.2q0-41.984-30.208-72.192t-72.192-30.208h-51.2v-153.6l-153.6 153.6h-358.4v409.6q0 41.984 30.208 72.192t72.192 30.208h460.8z" horiz-adv-x="1052" />
<glyph unicode="&#x54;" d="M936.96 857.6q41.984 0 72.192-30.208t30.208-72.192v-614.4q0-41.984-30.208-72.192t-72.192-30.208h-819.2q-41.984 0-72.192 30.208t-30.208 72.192v614.4q0 41.984 30.208 72.192t72.192 30.208h819.2zM936.96 140.8v614.4h-819.2v-614.4h819.2zM476.16 340.48v-92.16h-256v92.16h256zM476.16 494.080v-92.16h-256v92.16h256zM476.16 647.68v-92.16h-256v92.16h256zM829.44 320q2.048 0 3.584-17.92t1.536-36.352v-17.408h-256q0 71.68 5.12 71.68 10.24 2.048 24.576 7.168t38.4 22.528 24.064 37.888q0 16.384-13.824 35.328t-28.16 46.592-14.336 65.536q0 56.32 20.992 84.48t71.168 28.16 71.168-28.16 20.992-84.48q0-37.888-14.336-65.536t-28.16-46.592-13.824-35.328q0-20.48 22.016-37.376t43.52-23.040z" horiz-adv-x="1052" />
<glyph unicode="&#x55;" d="M1039.36 73.216q0-13.312-9.728-24.064t-24.064-10.752q-9.216 0-17.408 5.12l-221.184 139.264-222.208-139.264q-17.408-10.24-34.816 0l-222.208 139.264-221.184-139.264q-18.432-11.264-34.816 0.512t-16.384 29.184v599.040q0 20.48 16.384 30.72l239.616 149.504q17.408 10.24 33.792 0l222.208-139.264 222.208 139.264q16.384 10.24 33.792 0l239.616-149.504q16.384-10.24 16.384-30.72v-599.040zM254.976 243.2v517.12l-173.056-107.52v-518.144zM493.568 134.656v518.144l-172.032 107.52v-517.12zM733.184 243.2v517.12l-172.032-107.52v-518.144zM972.8 134.656v518.144l-173.056 107.52v-517.12z" horiz-adv-x="1052" />
<glyph unicode="&#x56;" d="M363.52 867.84q104.448 0 187.904-20.992t123.904-50.688 36.352-59.392l-73.728-607.232q-2.048-13.312-34.816-36.352t-99.328-44.032-140.288-20.992-140.288 20.992-99.328 44.032-34.816 36.352l-73.728 607.232q-4.096 29.696 36.352 59.392t123.904 50.688 187.904 20.992zM363.52 647.68q73.728 0 140.8 15.36t100.352 33.28 33.28 30.208-33.28 30.208-100.352 33.28-140.8 15.36-140.8-15.36-100.352-33.28-33.28-30.208 33.28-30.208 100.352-33.28 140.8-15.36z" horiz-adv-x="724" />
<glyph unicode="&#x57;" d="M629.76 908.8q41.984 0 72.192-30.208t30.208-72.192v-716.8q0-41.984-30.208-72.192t-72.192-30.208h-512q-41.984 0-72.192 30.208t-30.208 72.192v716.8q0 41.984 30.208 72.192t72.192 30.208h512zM629.76 89.6v716.8h-512v-716.8h512z" horiz-adv-x="744" />
<glyph unicode="&#x58;" d="M418.816 925.184l285.696-284.672v-629.76h-686.080v914.432h400.384zM358.4 582.144h229.376l-229.376 228.352v-228.352z" horiz-adv-x="720" />
<glyph unicode="&#x59;" d="M647.168 925.184l285.696-284.672v-629.76l-226.304 189.44-228.352-189.44-230.4 189.44-229.376-188.416v913.408h628.736zM819.2 242.176v228.352h-344.064v343.040h-342.016v-571.392l116.736 91.136 228.352-188.416 228.352 189.44zM589.824 585.216h229.376l-113.664 112.64-115.712 115.712v-228.352z" horiz-adv-x="948" />
<glyph unicode="&#x5a;" d="M636.928 925.184l295.936-293.888v-620.544l-228.352 189.44-229.376-189.44-228.352 189.44-228.352-189.44v914.432h618.496zM533.504 525.824h284.672l-284.672 284.672v-284.672z" horiz-adv-x="948" />
<glyph unicode="&#x5b;" d="M264.192 837.12h845.824v-646.144q0-45.056-33.28-79.36t-74.24-34.304h-735.232q-139.264 0-139.264 161.792v473.088h136.192v124.928zM264.192 239.104v403.456h-67.584v-403.456q0-87.040 32.768-87.040 34.816 0 34.816 87.040zM1040.384 190.976v576.512h-707.584v-528.384q0-55.296-19.456-93.184h689.152q16.384 0 27.136 14.848t10.752 30.208zM605.184 329.216v-23.552h-162.816v23.552h162.816zM605.184 255.488v-22.528h-162.816v22.528h162.816zM669.696 288.256v260.096h272.384v-260.096h-272.384zM605.184 472.576v-23.552h-162.816v23.552h162.816zM605.184 398.848v-22.528h-162.816v22.528h162.816zM605.184 548.352v-23.552h-162.816v23.552h162.816zM466.944 622.080v45.056h425.984v-45.056h-425.984z" horiz-adv-x="1234" />
<glyph unicode="&#x5c;" d="M680.96 704q21.504 0 36.352-14.848t14.848-36.352v-614.4q0-21.504-14.848-36.352t-36.352-14.848h-409.6q-21.504 0-36.352 14.848t-14.848 36.352v153.6h-153.6q-21.504 0-36.352 14.848t-14.848 36.352v614.4q0 21.504 14.848 36.352t36.352 14.848h409.6q21.504 0 36.352-14.848t14.848-36.352v-153.6h153.6zM117.76 294.4h102.4v359.424q0 21.504 14.336 35.84t35.84 14.336h154.624v102.4h-307.2v-512zM629.76 89.6v512h-307.2v-512h307.2z" horiz-adv-x="744" />
<glyph unicode="&#x5d;" d="M15.36 704q0 41.984 30.208 72.192t72.192 30.208h819.2q41.984 0 72.192-30.208t30.208-72.192v-512q0-41.984-30.208-72.192t-72.192-30.208h-819.2q-41.984 0-72.192 30.208t-30.208 72.192v512zM936.96 704h-819.2v-512h819.2v512z" horiz-adv-x="1052" />
<glyph unicode="&#x5e;" d="M873.472 704v-51.2h-712.704v51.2q0 22.528 12.8 35.328t25.088 13.824l12.288 2.048h612.352q2.048 0 5.632-0.512t11.776-3.072 14.848-7.168 12.288-15.36 5.632-25.088zM720.896 857.6q2.048 0 5.632-0.512t12.288-3.072 15.36-7.168 12.288-15.36 5.632-25.088h-509.952q0 22.528 12.8 35.328t26.112 13.824l12.288 2.048h407.552zM975.872 652.8l13.312-13.312q10.24-9.216 13.312-12.8t8.704-12.288 6.656-16.384 1.024-19.968-3.072-27.648l-22.528-129.024-36.864-212.992q-19.456-111.616-20.48-118.784-4.096-23.552-19.456-36.352t-29.696-13.824l-13.312-1.024h-712.704q-6.144 0-15.36 1.024t-26.112 13.824-20.992 36.352q-1.024 7.168-20.48 118.784l-36.864 212.992-22.528 129.024q-3.072 15.36-3.072 27.648t1.024 19.968 6.656 16.384 8.704 12.288 13.312 12.8l44.032 44.032v-81.92h856.064v81.92zM720.896 376.32v102.4h-71.68v-81.92h-264.192v81.92h-71.68v-102.4q0-2.048 0.512-5.632t3.072-12.288 7.168-15.36 15.36-12.288 25.088-5.632h305.152q22.528 0 35.328 12.8t13.824 26.112z" horiz-adv-x="1032" />
<glyph unicode="&#x5f;" d="M0 380.416v194.56q0 17.408 11.776 28.672t29.184 11.264h225.28v153.6q0 21.504 19.456 30.72 20.48 7.168 35.84-8.192l290.816-290.816q8.192-9.216 8.192-23.040t-8.192-22.016l-290.816-290.816q-10.24-10.24-22.528-10.24-5.12 0-13.312 2.048-19.456 9.216-19.456 30.72v152.576h-225.28q-17.408 0-29.184 11.776t-11.776 29.184zM485.376 73.216v101.376h242.688q24.576 0 41.984 17.92t17.408 42.496v485.376q0 24.576-17.408 42.496t-41.984 17.92h-242.688v101.376h242.688q32.768 0 61.952-13.312t51.2-34.816 34.816-51.2 12.8-62.464v-485.376q0-33.792-12.8-62.464t-34.816-51.2-51.2-35.328-61.952-12.8h-242.688z" horiz-adv-x="886" />
<glyph unicode="&#x60;" d="M0 235.008v485.376q0 32.768 12.8 61.952t34.816 51.2 51.2 35.328 62.976 13.312h242.688v-101.376h-242.688q-24.576 0-42.496-17.92t-17.92-42.496v-485.376q0-24.576 17.92-42.496t42.496-17.92h242.688v-101.376h-242.688q-33.792 0-62.976 12.8t-51.2 35.328-34.816 51.2-12.8 62.464zM267.264 380.416v194.56q0 17.408 11.776 28.672t29.184 11.264h225.28v153.6q0 21.504 20.48 30.72 20.48 7.168 34.816-8.192l290.816-290.816q9.216-9.216 9.216-23.040t-9.216-22.016l-290.816-290.816q-10.24-10.24-22.528-10.24-6.144 0-12.288 2.048-20.48 9.216-20.48 30.72v152.576h-225.28q-17.408 0-29.184 11.776t-11.776 29.184z" horiz-adv-x="886" />
<glyph unicode="&#x61;" d="M802.816 222.72l130.048 131.072v-343.040h-343.040l131.072 132.096-131.072 130.048 80.896 80.896zM361.472 925.184l-132.096-130.048 131.072-130.048-81.92-81.92-129.024 131.072-131.072-132.096v343.040h343.040zM361.472 272.896l-132.096-130.048 132.096-132.096h-343.040v343.040l131.072-131.072 131.072 131.072zM932.864 925.184v-343.040l-130.048 132.096-131.072-131.072-80.896 81.92 130.048 130.048-131.072 130.048h343.040z" horiz-adv-x="948" />
<glyph unicode="&#x62;" d="M859.136 165.376l73.728 73.728v-228.352h-228.352l73.728 73.728-188.416 188.416 80.896 80.896zM92.16 770.56l-73.728-73.728v228.352h228.352l-73.728-73.728 188.416-188.416-80.896-80.896zM778.24 851.456l-73.728 73.728h228.352v-228.352l-73.728 73.728-188.416-188.416-80.896 80.896zM361.472 272.896l-188.416-188.416 73.728-73.728h-228.352v228.352l73.728-73.728 188.416 188.416z" horiz-adv-x="948" />
<glyph unicode="&#x63;" d="M720.896 142.848l-131.072-132.096v343.040h343.040l-130.048-131.072 130.048-131.072-80.896-80.896zM18.432 582.144l131.072 132.096-130.048 129.024 80.896 80.896 129.024-129.024 132.096 130.048v-343.040h-343.040zM18.432 91.648l131.072 131.072-131.072 131.072h343.040v-343.040l-132.096 132.096-130.048-132.096zM589.824 582.144v343.040l131.072-130.048 131.072 129.024 79.872-80.896-129.024-129.024 130.048-132.096h-343.040z" horiz-adv-x="948" />
<glyph unicode="&#x64;" d="M663.552 199.168l-73.728-73.728v228.352h228.352l-73.728-73.728 188.416-188.416-80.896-80.896zM204.8 656.896l-186.368 187.392 80.896 80.896 187.392-186.368 74.752 71.68-1.024-227.328-227.328-1.024zM18.432 91.648l188.416 188.416-73.728 73.728h228.352v-228.352l-73.728 73.728-188.416-188.416zM819.2 582.144h-229.376v230.4l74.752-73.728 187.392 186.368 80.896-80.896-187.392-187.392z" horiz-adv-x="948" />
<glyph unicode="&#x65;" d="M533.504 353.792v-171.008h113.664l-172.032-172.032-169.984 172.032h113.664v171.008h114.688zM418.816 582.144v172.032h-113.664l169.984 171.008 172.032-171.008h-113.664v-172.032h-114.688zM361.472 411.136h-171.008v-113.664l-172.032 171.008 172.032 172.032v-114.688h171.008v-114.688zM589.824 525.824h172.032v114.688l171.008-172.032-171.008-171.008v113.664h-172.032v114.688z" horiz-adv-x="948" />
<glyph unicode="&#x66;" d="M446.464 623.104h500.736q27.648 0 47.104-19.968t19.456-46.592v-413.696q0-26.624-19.456-46.080t-47.104-19.456h-500.736q-26.624 0-46.592 19.456t-19.968 46.080v413.696q0 26.624 19.968 46.592t46.592 19.968zM911.36 527.872h-429.056v-355.328h429.056v355.328zM761.856 713.216h-104.448v44.032h-425.984v-344.064h59.392v-97.28h-95.232q-27.648 0-47.616 19.968t-19.968 46.592v404.48q0 28.672 19.968 48.64t47.616 19.968h499.712q27.648 0 47.104-19.968t19.456-48.64v-73.728z" horiz-adv-x="1138" />
<glyph unicode="&#x67;" d="M936.96 908.8q41.984 0 72.192-30.208t30.208-72.192v-614.4q0-41.984-30.208-71.68t-72.192-29.696h-203.776v100.352h204.8v472.064h-821.248v-472.064h204.8v-100.352h-203.776q-41.984 0-72.192 29.696t-30.208 71.68v614.4q0 41.984 30.208 72.192t72.192 30.208h819.2zM148.48 737.792q16.384 0 27.136 11.264t10.752 26.624-10.752 26.112-27.136 10.752-27.136-10.752-10.752-26.112 10.752-26.624 27.136-11.264zM250.88 737.792q16.384 0 27.136 11.264t10.752 26.624-10.752 26.112-27.136 10.752-27.136-10.752-10.752-26.112 10.752-26.624 27.136-11.264zM937.984 743.936v63.488h-616.448v-63.488h616.448zM524.288 541.184l248.832-246.784h-153.6v-307.2h-189.44v307.2h-153.6z" horiz-adv-x="1052" />
<glyph unicode="&#x68;" d="M936.96 857.6q41.984 0 72.192-30.208t30.208-72.192v-614.4q0-41.984-30.208-72.192t-72.192-30.208h-819.2q-41.984 0-72.192 30.208t-30.208 72.192v614.4q0 41.984 30.208 72.192t72.192 30.208h819.2zM250.88 761.344q-16.384 0-27.136-10.752t-10.752-26.112 10.752-26.624 27.136-11.264 27.136 11.264 10.752 26.624-10.752 26.112-27.136 10.752zM110.592 724.48q0-15.36 10.752-26.624t27.136-11.264 27.136 11.264 10.752 26.624-10.752 26.112-27.136 10.752-27.136-10.752-10.752-26.112zM937.984 140.8v471.040h-821.248v-471.040h821.248zM937.984 693.76v61.44h-615.424v-61.44h615.424z" horiz-adv-x="1052" />
<glyph unicode="&#x69;" d="M0 544.768q0 70.144 26.624 131.584t72.192 107.008 107.008 72.192 131.072 26.624 131.072-26.624 107.008-72.192 72.192-107.008 26.624-132.096q0-51.2-14.848-97.792t-41.472-87.552l181.248-180.224q9.216-10.24 9.216-24.576t-9.216-23.552l-47.104-47.104q-10.24-10.24-24.064-10.24t-24.064 10.24l-180.224 181.248q-40.96-27.648-87.552-41.984t-98.816-14.336q-69.632 0-131.072 26.112t-107.008 72.192-72.192 107.008-26.624 131.072zM135.168 544.256q0-41.984 15.36-78.336t43.008-64 64.512-43.52 79.36-15.872 78.848 15.872 64 43.52 43.008 64 15.36 78.336-15.36 78.848-43.008 64.512-64 43.52-78.848 15.872-79.36-15.872-64.512-43.52-43.008-64.512-15.36-78.848zM202.752 527.872v33.792q0 7.168 4.608 12.288t11.776 5.12h83.968v83.968q0 6.144 4.608 11.264t12.8 5.12h32.768q8.192 0 12.8-5.12t4.608-11.264v-83.968h83.968q17.408 0 17.408-17.408v-33.792q0-16.384-17.408-16.384h-83.968v-84.992q0-16.384-17.408-16.384h-32.768q-17.408 0-17.408 16.384v84.992h-83.968q-7.168 0-11.776 4.608t-4.608 11.776z" horiz-adv-x="804" />
<glyph unicode="&#x6a;" d="M0 544.768q0 70.144 26.624 131.584t72.192 107.008 107.008 72.192 131.072 26.624 131.072-26.624 107.008-72.192 72.192-107.008 26.624-132.096q0-51.2-14.848-97.792t-41.472-87.552l181.248-180.224q9.216-10.24 9.216-24.576t-9.216-23.552l-47.104-47.104q-10.24-10.24-24.064-10.24t-24.064 10.24l-180.224 181.248q-40.96-27.648-87.552-41.984t-98.816-14.336q-69.632 0-131.072 26.112t-107.008 72.192-72.192 107.008-26.624 131.072zM135.168 544.256q0-41.984 15.36-78.336t43.008-64 64.512-43.52 79.36-15.872 78.848 15.872 64 43.52 43.008 64 15.36 78.336-15.36 78.848-43.008 64.512-64 43.52-78.848 15.872-79.36-15.872-64.512-43.52-43.008-64.512-15.36-78.848zM202.752 527.872v33.792q0 7.168 4.608 12.288t11.776 5.12h235.52q17.408 0 17.408-17.408v-33.792q0-16.384-17.408-16.384h-235.52q-7.168 0-11.776 4.608t-4.608 11.776z" horiz-adv-x="804" />
<glyph unicode="&#x6b;" d="M486.4 919.040q128 0 236.544-62.976t171.52-171.52 62.976-236.544-62.976-236.544-171.52-171.52-236.544-62.976-236.544 62.976-171.52 171.52-62.976 236.544 62.976 236.544 171.52 171.52 236.544 62.976zM486.4 79.36q152.576 0 260.608 108.032t108.032 260.608-108.032 260.608-260.608 108.032-260.608-108.032-108.032-260.608 108.032-260.608 260.608-108.032zM578.56 644.608v-208.896h115.712l-207.872-195.584-206.848 195.584h114.688v208.896h184.32z" horiz-adv-x="970" />
<glyph unicode="&#x6c;" d="M957.44 448q0-128-62.976-236.544t-171.52-171.52-236.544-62.976-236.544 62.976-171.52 171.52-62.976 236.544 62.976 236.544 171.52 171.52 236.544 62.976 236.544-62.976 171.52-171.52 62.976-236.544zM117.76 448q0-152.576 108.032-260.608t260.608-108.032 260.608 108.032 108.032 260.608-108.032 260.608-260.608 108.032-260.608-108.032-108.032-260.608zM684.032 355.84h-209.92v-115.712l-195.584 207.872 195.584 206.848v-114.688h209.92v-184.32z" horiz-adv-x="970" />
<glyph unicode="&#x6d;" d="M15.36 448q0 128 62.976 236.544t171.52 171.52 236.544 62.976 236.544-62.976 171.52-171.52 62.976-236.544-62.976-236.544-171.52-171.52-236.544-62.976-236.544 62.976-171.52 171.52-62.976 236.544zM855.040 448q0 152.576-108.032 260.608t-260.608 108.032-260.608-108.032-108.032-260.608 108.032-260.608 260.608-108.032 260.608 108.032 108.032 260.608zM288.768 540.16h209.92v114.688l195.584-206.848-195.584-207.872v115.712h-209.92v184.32z" horiz-adv-x="970" />
<glyph unicode="&#x6e;" d="M486.4-23.040q-128 0-236.544 62.976t-171.52 171.52-62.976 236.544 62.976 236.544 171.52 171.52 236.544 62.976 236.544-62.976 171.52-171.52 62.976-236.544-62.976-236.544-171.52-171.52-236.544-62.976zM486.4 816.64q-152.576 0-260.608-108.032t-108.032-260.608 108.032-260.608 260.608-108.032 260.608 108.032 108.032 260.608-108.032 260.608-260.608 108.032zM394.24 250.368v209.92h-114.688l206.848 194.56 207.872-194.56h-115.712v-209.92h-184.32z" horiz-adv-x="970" />
<glyph unicode="&#x6f;" d="M592.896 521.728l-240.64-230.4q-17.408-17.408-39.936-17.408t-39.936 17.408q-220.16 208.896-240.64 230.4-15.36 16.384-15.872 40.96t15.872 41.984q37.888 37.888 80.896 0l199.68-192.512 199.68 192.512q43.008 37.888 80.896 0 16.384-17.408 15.872-41.984t-15.872-40.96z" horiz-adv-x="624" />
<glyph unicode="&#x70;" d="M263.168 728.576q16.384 15.36 40.96 15.872t41.984-15.872q37.888-37.888 0-80.896l-192.512-199.68 192.512-199.68q37.888-43.008 0-80.896-17.408-16.384-41.984-15.872t-40.96 15.872l-230.4 240.64q-17.408 17.408-17.408 39.936t17.408 39.936q208.896 220.16 230.4 240.64z" horiz-adv-x="376" />
<glyph unicode="&#x71;" d="M115.712 728.576l230.4-240.64q17.408-17.408 17.408-39.936t-17.408-39.936q-208.896-220.16-230.4-240.64-16.384-15.36-40.96-15.872t-41.984 15.872q-37.888 37.888 0 80.896l192.512 199.68-192.512 199.68q-37.888 43.008 0 80.896 17.408 16.384 41.984 15.872t40.96-15.872z" horiz-adv-x="376" />
<glyph unicode="&#x72;" d="M592.896 374.272q15.36-16.384 15.872-40.96t-15.872-41.984q-37.888-37.888-80.896 0l-199.68 192.512-199.68-192.512q-43.008-37.888-80.896 0-16.384 17.408-15.872 41.984t15.872 40.96l240.64 230.4q17.408 17.408 39.936 17.408t39.936-17.408q220.16-208.896 240.64-230.4z" horiz-adv-x="624" />
<glyph unicode="&#x73;" d="M3.072 246.272l75.776 221.184q4.096 14.336 19.456 22.528 16.384 6.144 29.696 2.048l222.208-75.776q22.528-7.168 23.040-20.48t-20.992-23.552l-102.4-51.2q25.6-38.912 61.952-67.584t81.408-44.032q55.296-19.456 111.104-14.848t104.96 28.672 87.040 66.048 57.344 96.256q2.048 9.216 9.216 12.288t15.36 1.024l76.8-25.6q18.432-8.192 12.288-25.6-26.624-79.872-80.384-139.264t-123.392-93.184-150.016-40.448-159.232 19.968q-67.584 22.528-121.856 67.072t-91.136 105.984l-104.448-51.2q-21.504-11.264-31.744-2.048t-2.048 31.744zM102.4 606.72q26.624 78.848 80.896 138.752t123.392 94.208 148.992 40.96 159.744-19.968q67.584-24.576 121.856-68.608t91.136-105.472l105.472 52.224q21.504 10.24 31.744 1.024t1.024-31.744l-74.752-221.184q-5.12-14.336-19.456-22.528-16.384-6.144-30.72-2.048l-222.208 75.776q-22.528 7.168-23.040 20.48t20.992 23.552l102.4 51.2q-25.6 37.888-62.464 67.072t-81.92 44.544q-55.296 19.456-111.104 14.336t-104.448-28.672-86.016-65.536-56.832-97.28q-3.072-8.192-10.24-11.264t-15.36-1.024l-75.776 26.624q-9.216 2.048-12.288 9.728t-1.024 14.848z" horiz-adv-x="966" />
<glyph unicode="&#x74;" d="M0 477.696q0 83.968 31.744 157.184t86.528 128.512 128.512 87.040 157.696 31.744 157.184-31.744 128-87.040 86.528-128.512 31.744-157.184-31.744-157.184-86.528-128.512-128-87.040-157.184-31.744-157.696 31.744-128.512 87.040-86.528 128.512-31.744 157.184zM121.856 477.696q0-58.368 22.016-110.080t60.416-90.112 90.112-60.416 110.080-22.016 110.080 22.016 90.112 60.416 60.928 90.112 22.528 110.080-22.528 110.080-60.928 90.624-90.112 60.928-110.080 22.016-110.080-22.016-90.112-60.928-60.416-90.624-22.016-110.080zM278.528 310.784v333.824q0 10.24 8.192 15.36 8.192 4.096 16.384 0l289.792-167.936q8.192-4.096 8.192-14.848t-8.192-13.824l-289.792-167.936q-4.096-2.048-9.216-2.048-3.072 0-7.168 2.048-8.192 5.12-8.192 15.36z" horiz-adv-x="804" />
<glyph unicode="&#x75;" d="M0 105.984v743.424q0 20.48 18.432 30.72 20.48 7.168 33.792-8.192l343.040-370.688q9.216-9.216 9.216-23.552t-9.216-23.552l-343.040-370.688q-9.216-10.24-22.528-10.24-3.072 0-11.264 2.048-18.432 9.216-18.432 30.72zM404.48 105.984v743.424q0 20.48 18.432 30.72 20.48 7.168 32.768-8.192l344.064-370.688q8.192-9.216 8.192-23.552t-8.192-23.552l-344.064-370.688q-8.192-10.24-21.504-10.24-3.072 0-11.264 2.048-18.432 9.216-18.432 30.72zM807.936 113.152q0-16.384 12.288-28.16t27.648-11.776h80.896q17.408 0 29.184 11.776t11.776 28.16v728.064q0 17.408-11.776 29.184t-29.184 11.776h-80.896q-15.36 0-27.648-11.776t-12.288-29.184v-728.064z" horiz-adv-x="966" />
<glyph unicode="&#x76;" d="M0 113.152q0-16.384 11.776-28.16t28.16-11.776h80.896q17.408 0 29.184 11.776t11.776 28.16v728.064q0 17.408-11.776 29.184t-29.184 11.776h-80.896q-16.384 0-28.16-11.776t-11.776-29.184v-728.064zM161.792 477.696q0 14.336 8.192 22.528l344.064 371.712q7.168 10.24 21.504 10.24 3.072 0 12.288-2.048 18.432-10.24 18.432-31.744v-742.4q0-21.504-18.432-30.72-20.48-7.168-33.792 8.192l-344.064 370.688q-8.192 9.216-8.192 23.552zM566.272 477.696q0 14.336 8.192 22.528l344.064 371.712q7.168 10.24 21.504 10.24 3.072 0 11.264-2.048 18.432-10.24 18.432-31.744v-742.4q0-21.504-18.432-30.72-20.48-7.168-32.768 8.192l-344.064 370.688q-8.192 9.216-8.192 23.552z" horiz-adv-x="966" />
<glyph unicode="&#x77;" d="M936.96 704q41.984 0 72.192-30.208t30.208-72.192v-307.2q0-41.984-30.208-72.192t-72.192-30.208h-819.2q-41.984 0-72.192 30.208t-30.208 72.192v307.2q0 41.984 30.208 72.192t72.192 30.208h819.2zM936.96 294.4v307.2h-819.2v-307.2h819.2z" horiz-adv-x="1052" />
<glyph unicode="&#x78;" d="M936.96 704q41.984 0 72.192-30.208t30.208-72.192v-307.2q0-41.984-30.208-72.192t-72.192-30.208h-819.2q-41.984 0-72.192 30.208t-30.208 72.192v307.2q0 41.984 30.208 72.192t72.192 30.208h819.2zM936.96 294.4v307.2h-819.2v-307.2h819.2zM373.76 550.4v-204.8h-204.8v204.8h204.8z" horiz-adv-x="1052" />
<glyph unicode="&#x79;" d="M936.96 704q41.984 0 72.192-30.208t30.208-72.192v-307.2q0-41.984-30.208-72.192t-72.192-30.208h-819.2q-41.984 0-72.192 30.208t-30.208 72.192v307.2q0 41.984 30.208 72.192t72.192 30.208h819.2zM936.96 294.4v307.2h-819.2v-307.2h819.2zM629.76 550.4v-204.8h-204.8v204.8h204.8zM373.76 550.4v-204.8h-204.8v204.8h204.8z" horiz-adv-x="1052" />
<glyph unicode="&#x7a;" d="M936.96 704q41.984 0 72.192-30.208t30.208-72.192v-307.2q0-41.984-30.208-72.192t-72.192-30.208h-819.2q-41.984 0-72.192 30.208t-30.208 72.192v307.2q0 41.984 30.208 72.192t72.192 30.208h819.2zM936.96 294.4v307.2h-819.2v-307.2h819.2zM885.76 550.4v-204.8h-204.8v204.8h204.8zM373.76 550.4v-204.8h-204.8v204.8h204.8zM629.76 550.4v-204.8h-204.8v204.8h204.8z" horiz-adv-x="1052" />
<glyph unicode="&#x7b;" d="M559.104 867.84q173.056 0 295.936-122.88t122.88-296.96-122.88-296.96-295.936-122.88q-143.36 0-257.024 89.088l71.68 76.8q84.992-61.44 185.344-61.44 130.048 0 222.208 92.672t92.16 222.72-92.16 222.208-222.208 92.16q-126.976 0-218.112-88.576t-95.232-215.552h146.432l-188.416-209.92-188.416 209.92h125.952q4.096 171.008 125.952 290.304t291.84 119.296zM522.24 673.28h71.68v-210.944l133.12-132.096-51.2-51.2-153.6 153.6v240.64z" horiz-adv-x="992" />
<glyph unicode="&#x7c;" d="M920.576 401.92q23.552-50.176 15.36-98.304l-34.816-188.416q-4.096-21.504-22.016-36.352t-39.424-14.848h-727.040q-21.504 0-39.424 14.848t-22.016 36.352l-34.816 188.416q-8.192 48.128 15.36 98.304l160.768 384q9.216 19.456 31.744 32.768t44.032 13.312h105.472l-20.48-207.872h-138.24l261.12-217.088 261.12 217.088h-138.24l-20.48 207.872h105.472q21.504 0 44.032-13.312t31.744-32.768zM850.944 261.632q3.072 21.504-10.24 36.864t-34.816 15.36h-659.456q-21.504 0-34.816-15.36t-10.24-36.864l13.312-73.728q3.072-21.504 20.48-36.352t38.912-14.848h604.16q21.504 0 38.912 14.848t20.48 36.352z" horiz-adv-x="950" />
<glyph unicode="&#x7d;" d="M0 73.216l1.024 41.984q5.12 2.048 15.36 4.608t25.6 4.608q48.128 9.216 57.344 17.408 8.192 5.12 25.6 34.816l122.88 323.584 145.408 381.952h66.56l6.144-11.264 106.496-252.928 33.792-79.872 30.72-76.8 27.648-68.608 22.528-54.272 15.36-36.864 18.432-49.152q12.288-34.816 33.792-78.848 12.288-25.6 18.432-29.696 10.24-10.24 34.816-13.312 13.312-1.024 26.112-4.608t28.16-9.728q3.072-19.456 3.072-28.672v-5.12q0-4.096-1.024-9.216-22.528 0-47.104 1.024t-52.224 3.072q-27.648 3.072-51.712 4.096t-45.568 1.024h-41.984q-17.408 0-28.672-1.024l-104.448-6.144-29.696-1.024q0 11.264 0.512 21.504t1.536 19.456l67.584 14.336q29.696 7.168 35.84 13.312 6.144 4.096 6.144 13.312 0 8.192-3.072 16.384l-24.576 60.416-48.128 119.808-234.496 1.024-19.456-51.2-34.816-93.184q-11.264-33.792-11.264-44.032 0-14.336 8.192-22.528 7.168-6.144 20.992-9.728t33.28-6.656q7.168-2.048 44.032-7.168v-30.72q0-8.192-1.024-14.336-18.432 0-63.488 3.072l-117.76 8.192-25.6-4.096q-22.528-5.12-43.52-6.656t-42.496-1.536h-11.264zM288.768 418.304q71.68-1.024 114.176-2.048t54.784 0l15.36 1.024q-9.216 26.624-21.504 58.368l-27.648 68.608-26.624 64.512q-11.264 27.648-20.48 46.080z" horiz-adv-x="864" />
<glyph unicode="&#x7e;" d="M0 73.216l1.024 50.176q14.336 3.072 35.84 6.144 20.48 3.072 36.352 6.656t29.184 9.728q4.096 7.168 6.656 13.824t4.608 12.8q3.072 17.408 4.096 42.496t1.024 58.88l-1.024 262.144q-1.024 20.48-1.536 73.216t-2.56 139.776q-3.072 46.080-7.168 57.344-2.048 4.096-6.144 5.12-11.264 8.192-36.864 9.216-11.264 0-60.416 6.144l-2.048 44.032 138.24 3.072 201.728 7.168h23.552q4.096 1.024 8.192 1.024h7.168q3.072 0 10.752-0.512t20.992-0.512h39.936q48.128 0 101.376-14.336 9.216-2.048 22.528-7.168t27.648-13.312q33.792-16.384 55.296-39.936 23.552-24.576 34.816-55.296 5.12-14.336 7.68-30.208t2.56-33.28q0-37.888-16.384-67.584-16.384-30.72-50.176-55.296-8.192-6.144-28.672-16.384l-51.2-24.576q94.208-21.504 141.312-76.8 48.128-54.272 48.128-123.904 0-36.864-14.336-84.992-12.288-33.792-37.888-61.44-34.816-37.888-74.752-57.344-40.96-17.408-107.52-30.72-36.864-6.144-104.448-5.12l-104.448 2.048q-33.792 1.024-73.216-1.024t-85.504-6.144q-13.312-1.024-49.152-2.048t-95.232-3.072zM282.624 820.736q0-7.168 0.512-17.408t1.536-22.528q1.024-27.648 2.048-63.488t0-82.944v-93.184q13.312-2.048 27.648-3.072t30.72-1.024q92.16 0 139.776 34.304t47.616 118.272q0 59.392-45.056 98.304-44.032 39.936-136.192 39.936-27.648 0-68.608-7.168zM286.72 313.856l2.048-142.336q0-8.192 5.12-22.528 38.912-17.408 74.752-17.408 68.608 0 115.712 21.504 43.008 20.48 64.512 59.392 9.216 19.456 14.848 43.008t5.632 53.248q0 59.392-22.528 94.208-31.744 50.176-74.752 66.56-41.984 16.384-131.072 16.384-19.456 0-32.768-1.536t-21.504-3.584v-166.912z" horiz-adv-x="744" />
<glyph unicode="&#xe000;" d="M0 73.216l9.216 44.032 17.408 5.12q10.24 3.072 23.552 6.144 22.528 5.12 37.888 10.24t26.624 10.24q14.336 20.48 21.504 54.272l14.336 71.68 30.72 141.312 6.144 33.792q12.288 62.464 22.016 93.696t9.728 33.28l15.36 81.92 9.216 32.768 11.264 71.68 5.12 25.6v20.48q-23.552 12.288-77.824 15.36-7.168 0-12.288 0.512t-9.216 0.512l10.24 55.296 172.032-8.192q16.384-1.024 25.6-1.024h14.336q18.432 0 46.592 1.024t69.12 3.072q21.504 3.072 36.352 4.096t19.968 1.024q-1.024-6.144-1.536-10.752t-1.536-9.728l-4.096-12.288-3.072-15.36q-26.624-8.192-58.368-15.36-34.816-9.216-55.296-16.384-6.144-17.408-13.312-47.104-3.072-12.288-4.608-23.040t-2.56-19.968l-21.504-92.16-14.336-67.584-32.768-163.84-20.48-83.968-22.528-123.904-8.192-23.552v-5.12q0-3.072 1.024-8.192 18.432-5.12 34.304-7.68t30.208-4.608q3.072 0 11.776-1.024t24.064-3.072q-1.024-10.24-1.536-17.408t-1.536-14.336q-1.024-3.072-2.048-8.192t-3.072-12.288q-4.096 0-7.68-0.512t-5.632-0.512q-9.216-1.024-15.36-1.024h-12.288q-4.096 0-10.24 2.048-4.096 0-23.552 2.048t-55.296 7.168l-106.496 1.024q-31.744 0-94.208-7.168-20.48-2.048-33.792-3.072t-19.456-1.024z" horiz-adv-x="552" />
<glyph unicode="&#xe001;" d="M0 679.424q7.168 19.456 17.92 58.368t24.064 96.256q4.096 17.408 7.168 28.672t5.12 17.408h29.696l5.12-10.24q15.36-29.696 21.504-37.888 9.216-2.048 68.608-2.048 18.432 0 34.816 0.512t31.744 0.512l11.264 1.024 58.368 1.024 112.64-1.024h151.552l29.696 6.144q5.12 4.096 13.312 27.648l3.072 6.144 3.072 9.216 22.528 1.024h5.12q3.072 0 8.192-1.024 2.048-20.48 1.024-51.2t1.024-72.704v-82.944q0-8.192-1.024-15.36t-2.048-12.288q-10.24-4.096-18.944-5.632t-15.872-3.584q-14.336 26.624-28.672 67.584-14.336 43.008-19.456 48.128-6.144 8.192-13.312 11.264-6.144 2.048-32.768 2.048h-88.064q-9.216 0-18.432-2.048-3.072-22.528-3.072-37.888l1.024-79.872v-175.104l1.024-189.44v-76.8q0-37.888 5.12-61.44 4.096-2.048 11.264-4.608t18.432-4.608q2.048 0 11.264-2.048t25.6-6.144q14.336-5.12 26.624-10.24 2.048-10.24 2.048-17.408v-14.336q0-4.096-1.024-10.24h-18.432q-24.576 0-46.592 1.024t-39.936 3.584-49.664 3.584-78.848 1.024q-8.192 0-29.696-2.56t-57.344-5.632q-15.36-1.024-24.064-1.536t-12.8-0.512q0 5.12-0.512 8.704t-0.512 5.632l-1.024 13.312v5.12q10.24 16.384 41.984 25.6 50.176 14.336 71.68 25.6 2.048 6.144 3.072 13.824t2.048 16.896q2.048 35.84 3.072 92.672t0 134.656l-2.048 225.28q-1.024 47.104-1.024 74.752t-2.048 37.888q0 5.12-3.072 8.192-2.048 3.072-7.168 3.072-8.192 2.048-32.768 2.048h-67.584q-47.104 0-62.464-10.24-21.504-15.36-63.488-80.896-11.264-18.432-18.432-18.432-11.264 6.144-18.432 12.288t-10.24 10.24zM728.064 194.56q3.072 6.656 16.384 6.656h63.488v551.936h-63.488q-13.312 0-16.384 7.168t7.168 18.432l97.28 96.256q7.168 7.168 16.384 7.168 8.192 0 16.384-7.168l97.28-96.256q9.216-11.264 6.656-18.432t-17.92-7.168h-62.464v-551.936h62.464q15.36 0 17.92-6.656t-6.656-16.896l-97.28-97.28q-8.192-7.168-16.896-7.168t-15.872 7.168l-97.28 97.28q-10.24 10.24-7.168 16.896z" horiz-adv-x="966" />
<glyph unicode="&#xe002;" d="M0 196.608q0 9.728 6.144 15.872l98.304 97.28q10.24 10.24 16.896 7.168t6.656-17.408v-63.488h551.936v63.488q0 14.336 7.168 17.408t17.408-7.168l97.28-97.28q6.144-6.144 6.144-15.872t-6.144-16.896l-97.28-97.28q-10.24-10.24-17.408-7.68t-7.168 17.92v62.464h-551.936v-62.464q0-15.36-6.656-17.92t-16.896 7.68l-98.304 97.28q-6.144 7.168-6.144 16.896zM0 722.432q7.168 15.36 17.408 46.080t23.552 76.8q3.072 14.336 5.632 22.528t5.632 14.336h28.672q4.096-7.168 5.12-8.192 14.336-24.576 19.456-29.696 1.024 0 18.944-0.512t41.472-0.512h150.528l10.24 1.024h382.976l27.648 3.072q6.144 5.12 13.312 23.552 1.024 2.048 2.048 5.12t3.072 7.168h35.84v-164.864q0-7.168-0.512-11.776t-1.536-9.728q-17.408-6.144-33.792-8.192-13.312 19.456-26.624 54.272-14.336 30.72-18.432 38.912-7.168 5.12-14.336 7.168-3.072 1.024-22.016 1.536t-44.544 0.512h-120.832q-9.216 0-18.432-1.024-1.024-9.216-1.536-16.896t-0.512-12.8l2.048-234.496-1.024-62.464q0-31.744 6.144-48.128 7.168-3.072 28.672-6.144 2.048 0 10.752-2.56t23.040-5.632l14.336-4.096q6.144-1.024 12.288-3.072l1.024-13.312q1.024-5.12 1.024-7.168t-0.512-5.632-0.512-7.68h-17.408q-50.176 0-82.944 3.072-34.816 4.096-123.904 4.096-8.192 0-28.672-2.048t-54.272-4.096q-14.336-1.024-23.040-1.536t-12.8-0.512q0 9.216-1.024 11.264v14.336q10.24 14.336 38.912 20.48 47.104 11.264 68.608 21.504 2.048 5.12 3.072 10.752t2.048 13.824q0 9.216 0.512 36.864t0.512 62.976-0.512 74.752-1.024 73.216-1.024 56.832-0.512 25.088q0 4.096-3.072 6.144-1.024 1.024-6.144 3.072-8.192 1.024-31.744 1.024h-64.512q-10.24 0-32.768-1.024h-45.056q-22.528-1.024-40.96-2.56t-21.504-3.584q-21.504-13.312-61.44-64.512-10.24-15.36-17.408-15.36-11.264 5.12-17.92 10.24t-9.728 8.192z" horiz-adv-x="804" />
<glyph unicode="&#xe003;" d="M0 114.176v60.416q0 16.384 11.776 28.16t29.184 11.776h888.832q16.384 0 28.16-11.776t11.776-28.16v-60.416q0-17.408-11.776-29.184t-28.16-11.776h-888.832q-17.408 0-29.184 11.776t-11.776 29.184zM0 336.384v60.416q0 17.408 11.776 29.184t29.184 11.776h566.272q15.36 0 27.648-11.776t12.288-29.184v-60.416q0-17.408-12.288-29.184t-27.648-11.776h-566.272q-17.408 0-29.184 11.776t-11.776 29.184zM0 558.592v60.416q0 17.408 11.776 29.184t29.184 11.776h807.936q16.384 0 28.16-11.776t11.776-29.184v-60.416q0-17.408-11.776-28.672t-28.16-11.264h-807.936q-17.408 0-29.184 11.264t-11.776 28.672zM0 780.8v61.44q0 16.384 11.776 28.16t29.184 11.776h485.376q15.36 0 27.648-11.776t12.288-28.16v-61.44q0-16.384-12.288-28.16t-27.648-11.776h-485.376q-17.408 0-29.184 11.776t-11.776 28.16z" horiz-adv-x="966" />
<glyph unicode="&#xe004;" d="M0 114.176v60.416q0 16.384 11.776 28.16t29.184 11.776h888.832q16.384 0 28.16-11.776t11.776-28.16v-60.416q0-17.408-11.776-29.184t-28.16-11.776h-888.832q-17.408 0-29.184 11.776t-11.776 29.184zM40.96 558.592v60.416q0 17.408 11.264 29.184t28.672 11.776h807.936q17.408 0 29.184-11.776t11.776-29.184v-60.416q0-17.408-11.776-28.672t-29.184-11.264h-807.936q-17.408 0-28.672 11.264t-11.264 28.672zM161.792 336.384v60.416q0 17.408 11.776 29.184t29.184 11.776h566.272q15.36 0 27.136-11.776t11.776-29.184v-60.416q0-17.408-11.776-29.184t-27.136-11.776h-566.272q-17.408 0-29.184 11.776t-11.776 29.184zM202.752 780.8v61.44q0 16.384 11.264 28.16t28.672 11.776h485.376q16.384 0 28.672-11.776t12.288-28.16v-61.44q0-16.384-12.288-28.16t-28.672-11.776h-485.376q-17.408 0-28.672 11.776t-11.264 28.16z" horiz-adv-x="966" />
<glyph unicode="&#xe005;" d="M0 114.176v60.416q0 16.384 11.776 28.16t29.184 11.776h888.832q16.384 0 28.16-11.776t11.776-28.16v-60.416q0-17.408-11.776-29.184t-28.16-11.776h-888.832q-17.408 0-29.184 11.776t-11.776 29.184zM80.896 558.592v60.416q0 17.408 11.776 29.184t29.184 11.776h807.936q16.384 0 28.16-11.776t11.776-29.184v-60.416q0-17.408-11.776-28.672t-28.16-11.264h-807.936q-17.408 0-29.184 11.264t-11.776 28.672zM323.584 336.384v60.416q0 17.408 11.776 29.184t29.184 11.776h565.248q16.384 0 28.16-11.776t11.776-29.184v-60.416q0-17.408-11.776-29.184t-28.16-11.776h-565.248q-17.408 0-29.184 11.776t-11.776 29.184zM404.48 780.8v61.44q0 16.384 11.776 28.16t29.184 11.776h484.352q16.384 0 28.16-11.776t11.776-28.16v-61.44q0-16.384-11.776-28.16t-28.16-11.776h-484.352q-17.408 0-29.184 11.776t-11.776 28.16z" horiz-adv-x="966" />
<glyph unicode="&#xe006;" d="M0 114.176v60.416q0 16.384 11.776 28.16t29.184 11.776h888.832q16.384 0 28.16-11.776t11.776-28.16v-60.416q0-17.408-11.776-29.184t-28.16-11.776h-888.832q-17.408 0-29.184 11.776t-11.776 29.184zM0 336.384v60.416q0 17.408 11.776 29.184t29.184 11.776h888.832q16.384 0 28.16-11.776t11.776-29.184v-60.416q0-17.408-11.776-29.184t-28.16-11.776h-888.832q-17.408 0-29.184 11.776t-11.776 29.184zM0 558.592v60.416q0 17.408 11.776 29.184t29.184 11.776h888.832q16.384 0 28.16-11.776t11.776-29.184v-60.416q0-17.408-11.776-28.672t-28.16-11.264h-888.832q-17.408 0-29.184 11.264t-11.776 28.672zM0 780.8v61.44q0 16.384 11.776 28.16t29.184 11.776h888.832q16.384 0 28.16-11.776t11.776-28.16v-61.44q0-16.384-11.776-28.16t-28.16-11.776h-888.832q-17.408 0-29.184 11.776t-11.776 28.16z" horiz-adv-x="966" />
<glyph unicode="&#xe007;" d="M0 114.176v60.416q0 16.384 11.776 28.16t29.184 11.776h80.896q16.384 0 28.16-11.776t11.776-28.16v-60.416q0-17.408-11.776-29.184t-28.16-11.776h-80.896q-17.408 0-29.184 11.776t-11.776 29.184zM0 336.384v60.416q0 17.408 11.776 29.184t29.184 11.776h80.896q16.384 0 28.16-11.776t11.776-29.184v-60.416q0-17.408-11.776-29.184t-28.16-11.776h-80.896q-17.408 0-29.184 11.776t-11.776 29.184zM0 558.592v60.416q0 17.408 11.776 29.184t29.184 11.776h80.896q16.384 0 28.16-11.776t11.776-29.184v-60.416q0-17.408-11.776-28.672t-28.16-11.264h-80.896q-17.408 0-29.184 11.264t-11.776 28.672zM0 780.8v61.44q0 16.384 11.776 28.16t29.184 11.776h80.896q16.384 0 28.16-11.776t11.776-28.16v-61.44q0-16.384-11.776-28.16t-28.16-11.776h-80.896q-17.408 0-29.184 11.776t-11.776 28.16zM242.688 114.176v60.416q0 16.384 11.776 28.16t29.184 11.776h646.144q16.384 0 28.16-11.776t11.776-28.16v-60.416q0-17.408-11.776-29.184t-28.16-11.776h-646.144q-17.408 0-29.184 11.776t-11.776 29.184zM242.688 336.384v60.416q0 17.408 11.776 29.184t29.184 11.776h646.144q16.384 0 28.16-11.776t11.776-29.184v-60.416q0-17.408-11.776-29.184t-28.16-11.776h-646.144q-17.408 0-29.184 11.776t-11.776 29.184zM242.688 558.592v60.416q0 17.408 11.776 29.184t29.184 11.776h646.144q16.384 0 28.16-11.776t11.776-29.184v-60.416q0-17.408-11.776-28.672t-28.16-11.264h-646.144q-17.408 0-29.184 11.264t-11.776 28.672zM242.688 780.8v61.44q0 16.384 11.776 28.16t29.184 11.776h646.144q16.384 0 28.16-11.776t11.776-28.16v-61.44q0-16.384-11.776-28.16t-28.16-11.776h-646.144q-17.408 0-29.184 11.776t-11.776 28.16z" horiz-adv-x="966" />
<glyph unicode="&#xe008;" d="M0 471.552v39.936q0 20.48 20.48 20.48h111.616v80.896q0 15.36 8.704 18.944t20.992-8.704l112.64-112.64q9.216-9.216 9.216-19.456t-9.216-18.432l-112.64-113.664q-12.288-11.264-20.992-8.192t-8.704 20.48v79.872h-111.616q-20.48 0-20.48 20.48zM323.584 93.696v768q0 20.48 20.48 20.48h39.936q20.48 0 20.48-20.48v-768q0-20.48-20.48-20.48h-39.936q-20.48 0-20.48 20.48zM485.376 114.176v60.416q0 16.384 11.776 28.16t29.184 11.776h403.456q16.384 0 28.16-11.776t11.776-28.16v-60.416q0-17.408-11.776-29.184t-28.16-11.776h-403.456q-17.408 0-29.184 11.776t-11.776 29.184zM485.376 336.384v60.416q0 17.408 11.776 29.184t29.184 11.776h322.56q16.384 0 28.16-11.776t11.776-29.184v-60.416q0-17.408-11.776-29.184t-28.16-11.776h-322.56q-17.408 0-29.184 11.776t-11.776 29.184zM485.376 558.592v60.416q0 17.408 11.776 29.184t29.184 11.776h362.496q17.408 0 29.184-11.776t11.776-29.184v-60.416q0-17.408-11.776-28.672t-29.184-11.264h-362.496q-17.408 0-29.184 11.264t-11.776 28.672zM485.376 780.8v61.44q0 16.384 11.776 28.16t29.184 11.776h281.6q17.408 0 29.184-11.776t11.776-28.16v-61.44q0-16.384-11.776-28.16t-29.184-11.776h-281.6q-17.408 0-29.184 11.776t-11.776 28.16z" horiz-adv-x="966" />
<glyph unicode="&#xe009;" d="M0 114.176v60.416q0 16.384 11.776 28.16t28.16 11.776h404.48q17.408 0 29.184-11.776t11.776-28.16v-60.416q0-17.408-11.776-29.184t-29.184-11.776h-404.48q-16.384 0-28.16 11.776t-11.776 29.184zM0 336.384v60.416q0 17.408 11.776 29.184t28.16 11.776h323.584q17.408 0 29.184-11.776t11.776-29.184v-60.416q0-17.408-11.776-29.184t-29.184-11.776h-323.584q-16.384 0-28.16 11.776t-11.776 29.184zM0 558.592v60.416q0 17.408 11.776 29.184t28.16 11.776h364.544q16.384 0 28.16-11.776t11.776-29.184v-60.416q0-17.408-11.776-28.672t-28.16-11.264h-364.544q-16.384 0-28.16 11.264t-11.776 28.672zM0 780.8v61.44q0 16.384 11.776 28.16t28.16 11.776h283.648q16.384 0 28.16-11.776t11.776-28.16v-61.44q0-16.384-11.776-28.16t-28.16-11.776h-283.648q-16.384 0-28.16 11.776t-11.776 28.16zM566.272 93.696v768q0 20.48 20.48 20.48h39.936q8.192 0 14.336-6.144t6.144-14.336v-768q0-8.192-6.144-14.336t-14.336-6.144h-39.936q-20.48 0-20.48 20.48zM687.104 464.384q0 9.216 7.168 18.432l113.664 113.664q12.288 11.264 20.48 8.192t8.192-20.48v-79.872h112.64q9.216 0 14.848-5.632t5.632-14.848v-39.936q0-8.192-5.632-14.336t-14.848-6.144h-112.64v-80.896q0-15.36-8.192-19.456t-20.48 8.192l-113.664 113.664q-7.168 10.24-7.168 19.456z" horiz-adv-x="966" />
<glyph unicode="&#xe00a;" d="M480.256 919.040q96.256 1.024 183.808-35.328t151.552-98.304 102.4-148.48 39.424-182.784-35.328-183.808-98.304-151.552-148.48-102.4-182.784-39.424-183.808 35.328-151.552 98.304-102.4 148.48-39.424 182.784 35.328 183.808 98.304 151.552 148.48 102.4 182.784 39.424zM481.28 857.6q-98.304-1.024-184.32-46.080l63.488-105.472q59.392 28.672 125.952 28.672t125.952-28.672l63.488 105.472q-90.112 47.104-194.56 46.080zM228.352 322.048q-28.672 59.392-28.672 125.952t28.672 125.952l-105.472 63.488q-47.104-90.112-46.080-194.56 1.024-98.304 46.080-184.32zM491.52 38.4q98.304 1.024 184.32 46.080l-63.488 105.472q-59.392-28.672-125.952-28.672t-125.952 28.672l-63.488-105.472q90.112-47.104 194.56-46.080zM486.4 222.72q93.184 0 159.232 65.536t66.048 159.744-66.048 159.744-159.232 65.536-159.232-65.536-66.048-159.744 66.048-159.744 159.232-65.536zM744.448 322.048l105.472-63.488q47.104 90.112 46.080 194.56-1.024 98.304-46.080 184.32l-105.472-63.488q28.672-59.392 28.672-125.952t-28.672-125.952z" horiz-adv-x="970" />
<glyph unicode="&#xe00b;" d="M578.56 223.744q28.672-80.896-17.92-161.28t-140.8-113.152q-96.256-29.696-179.712 7.68t-105.984 120.32l-109.568 394.24q-19.456 69.632 7.168 137.216t86.016 107.52l-98.304 191.488q-7.168 13.312-2.56 27.648t17.92 21.504 26.624 2.56 20.48-17.92l101.376-196.608q81.92 21.504 157.696-17.408t103.424-117.76zM245.76 504.32q28.672 9.216 41.984 35.84t4.096 55.296-35.328 42.496-53.76 4.608-41.472-35.84-4.608-55.296 34.816-42.496 54.272-4.608z" horiz-adv-x="602" />
<glyph unicode="&#xe00c;" d="M481.28 423.424v-102.4h-465.92q7.168 231.424 10.24 299.008 2.048 54.272 25.088 82.432t77.312 28.16h163.84l37.888 71.68q22.528 41.984 23.552 43.008 14.336 25.6 23.552 32.256t36.864 6.656h227.328q27.648 0 36.864-6.656t23.552-32.256q1.024-1.024 23.552-43.008l37.888-71.68h163.84q54.272 0 77.312-28.16t25.088-82.432l10.24-299.008h-465.92v102.4h-92.16zM407.552 785.92q-3.072-6.144-29.696-55.296h299.008q-26.624 49.152-29.696 55.296-8.192 17.408-15.36 22.016t-25.6 4.608h-157.696q-18.432 0-25.6-4.608t-15.36-22.016zM573.44 167.424v102.4h440.32q-6.144-91.136-10.24-171.008-1.024-15.36-4.096-27.648t-11.776-26.624-28.16-22.528-48.128-8.192h-768q-28.672 0-48.128 8.192t-28.16 22.528-11.776 26.624-4.096 27.648l-10.24 171.008h440.32v-102.4h92.16z" horiz-adv-x="1052" />
<glyph unicode="&#xe00d;" d="M128 560.64q47.104 0 79.872-32.768t32.768-79.872-32.768-79.872-79.872-32.768-79.872 32.768-32.768 79.872 32.768 79.872 79.872 32.768z" horiz-adv-x="256" />
<glyph unicode="&#xe00e;" d="M128 560.64q47.104 0 79.872-32.768t32.768-79.872-32.768-79.872-79.872-32.768-79.872 32.768-32.768 79.872 32.768 79.872 79.872 32.768zM486.4 560.64q47.104 0 79.872-32.768t32.768-79.872-32.768-79.872-79.872-32.768-79.872 32.768-32.768 79.872 32.768 79.872 79.872 32.768z" horiz-adv-x="612" />
<glyph unicode="&#xe00f;" d="M128 560.64q47.104 0 79.872-32.768t32.768-79.872-32.768-79.872-79.872-32.768-79.872 32.768-32.768 79.872 32.768 79.872 79.872 32.768zM486.4 560.64q47.104 0 79.872-32.768t32.768-79.872-32.768-79.872-79.872-32.768-79.872 32.768-32.768 79.872 32.768 79.872 79.872 32.768zM844.8 560.64q47.104 0 79.872-32.768t32.768-79.872-32.768-79.872-79.872-32.768-79.872 32.768-32.768 79.872 32.768 79.872 79.872 32.768z" horiz-adv-x="970" />
<glyph unicode="&#xe010;" d="M0 457.216q0 96.256 44.032 179.712t123.904 137.728q7.168 4.096 15.36 4.096 7.168-1.024 13.312-9.216l45.056-66.56q10.24-17.408-5.12-27.648-55.296-37.888-84.992-95.232t-29.696-122.88q0-54.272 20.48-101.888t55.808-83.456 83.456-56.32 102.4-20.48 102.4 20.48 83.968 56.32 56.32 83.456 20.48 101.888q0 65.536-30.208 122.88t-85.504 95.232q-6.144 3.072-8.192 12.288-2.048 7.168 3.072 15.36l46.080 66.56q5.12 7.168 12.8 8.704t14.848-3.584q78.848-54.272 123.904-137.728t45.056-179.712q0-79.872-30.208-149.504t-82.944-121.856-122.368-82.432-149.504-30.208-149.504 30.208-121.856 82.432-82.432 121.856-30.208 149.504zM323.584 498.176v363.52q0 20.48 20.48 20.48h80.896q8.192 0 14.336-6.144t6.144-14.336v-363.52q0-8.192-6.144-14.336t-14.336-6.144h-80.896q-20.48 0-20.48 20.48z" horiz-adv-x="768" />
<glyph unicode="&#xe011;" d="M1.024 91.648l312.32 772.096q3.072 7.168 11.264 12.8t17.408 5.632h102.4l-5.12-90.112h91.136l-4.096 90.112h102.4q8.192 0 16.384-5.632t11.264-12.8l312.32-772.096q3.072-7.168-0.512-12.8t-11.776-5.632h-389.12l-14.336 269.312h-136.192l-13.312-269.312h-389.12q-9.216 0-12.8 5.632t-0.512 12.8zM424.96 493.056h120.832l-11.264 217.088h-99.328z" horiz-adv-x="966" />
<glyph unicode="&#xe012;" d="M0 133.632v688.128q0 24.576 17.92 42.496t42.496 17.92h848.896q25.6 0 43.008-17.92t17.408-42.496v-688.128q0-24.576-17.408-42.496t-43.008-17.92h-848.896q-24.576 0-42.496 17.92t-17.92 42.496zM80.896 154.112h807.936v566.272h-807.936v-566.272zM161.792 255.488v39.936q0 20.48 20.48 20.48h80.896q8.192 0 14.336-6.144t6.144-14.336v-39.936q0-8.192-6.144-14.336t-14.336-6.144h-80.896q-20.48 0-20.48 20.48zM161.792 417.28v39.936q0 20.48 20.48 20.48h80.896q8.192 0 14.336-6.144t6.144-14.336v-39.936q0-8.192-6.144-14.336t-14.336-6.144h-80.896q-20.48 0-20.48 20.48zM161.792 579.072v39.936q0 20.48 20.48 20.48h80.896q8.192 0 14.336-6.144t6.144-14.336v-39.936q0-9.216-6.144-14.848t-14.336-5.632h-80.896q-20.48 0-20.48 20.48zM364.544 255.488v39.936q0 8.192 5.12 14.336t14.336 6.144h403.456q20.48 0 20.48-20.48v-39.936q0-20.48-20.48-20.48h-403.456q-9.216 0-14.336 6.144t-5.12 14.336zM364.544 417.28v39.936q0 8.192 5.12 14.336t14.336 6.144h403.456q20.48 0 20.48-20.48v-39.936q0-20.48-20.48-20.48h-403.456q-9.216 0-14.336 6.144t-5.12 14.336zM364.544 579.072v39.936q0 8.192 5.12 14.336t14.336 6.144h403.456q20.48 0 20.48-20.48v-39.936q0-20.48-20.48-20.48h-403.456q-9.216 0-14.336 5.632t-5.12 14.848z" horiz-adv-x="966" />
<glyph unicode="&#xe013;" d="M0 73.216v367.616h367.616v-367.616h-367.616zM0 514.56v367.616h367.616v-367.616h-367.616zM73.728 146.944h220.16v221.184h-220.16v-221.184zM73.728 587.264h220.16v221.184h-220.16v-221.184zM146.432 219.648v74.752h74.752v-74.752h-74.752zM146.432 660.992v72.704h74.752v-72.704h-74.752zM441.344 73.216v367.616h219.136v-72.704h74.752v72.704h72.704v-221.184h-220.16v73.728h-73.728v-220.16h-72.704zM441.344 514.56v367.616h366.592v-367.616h-366.592zM514.048 587.264h221.184v221.184h-221.184v-221.184zM587.776 73.216v73.728h72.704v-73.728h-72.704zM587.776 660.992v72.704h72.704v-72.704h-72.704zM735.232 73.216v73.728h72.704v-73.728h-72.704z" horiz-adv-x="804" />
<glyph unicode="&#xe014;" d="M0 73.216v808.96h80.896v-808.96h-80.896zM119.808 73.216v808.96h19.456v-808.96h-19.456zM187.392 73.216v808.96h61.44v-808.96h-61.44zM286.72 73.216v808.96h40.96v-808.96h-40.96zM375.808 73.216v808.96h39.936v-808.96h-39.936zM475.136 73.216v808.96h19.456v-808.96h-19.456zM533.504 73.216v808.96h80.896v-808.96h-80.896zM642.048 73.216v808.96h40.96v-808.96h-40.96zM741.376 73.216v808.96h20.48v-808.96h-20.48zM831.488 73.216v808.96h19.456v-808.96h-19.456zM888.832 73.216v808.96h80.896v-808.96h-80.896z" horiz-adv-x="966" />
<glyph unicode="&#xe015;" d="M0 477.696q0 83.968 31.744 157.184t86.528 128.512 128.512 87.040 157.696 31.744 157.184-31.744 128-87.040 86.528-128.512 31.744-157.184-31.744-157.184-86.528-128.512-128-87.040-157.184-31.744-157.696 31.744-128.512 87.040-86.528 128.512-31.744 157.184zM121.856 477.696q0-58.368 22.016-110.080t60.416-90.112 90.112-60.416 110.080-22.016v566.272q-58.368 0-110.080-22.016t-90.112-60.928-60.416-90.624-22.016-110.080z" horiz-adv-x="804" />
<glyph unicode="&#xe016;" d="M0 359.936q0 41.984 11.776 80.896t33.28 72.704q11.264 17.408 35.84 50.688t54.272 77.824 57.856 97.28 45.568 110.080q5.12 18.432 18.432 26.624t28.672 6.144q16.384 2.048 29.696-6.144t18.432-26.624q17.408-57.344 45.568-110.080t57.856-97.28 54.272-77.824 35.84-50.688q21.504-33.792 33.28-72.704t11.776-80.896q0-59.392-22.528-111.616t-61.44-91.136-91.136-61.44-111.616-22.528-111.104 22.528-90.624 61.44-61.44 91.136-22.528 111.616zM124.928 296.448q0-29.696 20.992-50.176t51.712-20.48q28.672 0 49.664 20.48t20.992 50.176q0 19.456-10.24 38.912-4.096 4.096-10.24 12.288t-13.312 19.456-14.336 24.576-11.264 27.648q-4.096 10.24-11.264 7.168-10.24 3.072-12.288-7.168-4.096-14.336-11.776-27.648t-14.848-24.576-13.312-19.456-8.192-12.288q-12.288-18.432-12.288-38.912z" horiz-adv-x="568" />
<glyph unicode="&#xe017;" d="M18.432 297.472l456.704-114.688 457.728 114.688v-114.688l-457.728-113.664-456.704 113.664v114.688zM18.432 525.824l456.704-114.688 457.728 114.688v-114.688l-457.728-113.664-456.704 113.664v114.688zM18.432 754.176l456.704 114.688 457.728-114.688v-113.664l-457.728-114.688-456.704 114.688v113.664z" horiz-adv-x="948" />
<glyph unicode="&#xe018;" d="M18.432 239.104l456.704-113.664 457.728 113.664v-113.664l-457.728-114.688-456.704 114.688v113.664zM18.432 468.48l456.704-114.688 457.728 114.688v-114.688l-457.728-114.688-456.704 114.688v114.688zM18.432 696.832l456.704-114.688 457.728 114.688v-114.688l-457.728-113.664-456.704 113.664v114.688zM18.432 925.184l456.704-114.688 457.728 114.688v-114.688l-457.728-113.664-456.704 113.664v114.688z" horiz-adv-x="948" />
<glyph unicode="&#xe019;" d="M0 409.088v149.504q0 8.192 6.144 14.336t14.336 6.144h201.728q8.192 0 14.336-6.144t6.144-14.336v-149.504q0-14.336 11.776-30.72t32.768-30.208 50.688-23.040 66.56-9.216 66.048 9.216 50.176 23.040 33.28 30.208 12.288 30.72v149.504q0 8.192 5.632 14.336t14.848 6.144h200.704q9.216 0 14.848-6.144t5.632-14.336v-149.504q0-70.656-31.744-131.584t-86.528-105.984-128-71.68-157.184-26.624-157.696 26.624-128.512 71.68-86.528 105.984-31.744 131.584zM0 659.968v201.728q0 20.48 20.48 20.48h201.728q20.48 0 20.48-20.48v-201.728q0-20.48-20.48-20.48h-201.728q-20.48 0-20.48 20.48zM566.272 659.968v201.728q0 20.48 20.48 20.48h200.704q20.48 0 20.48-20.48v-201.728q0-20.48-20.48-20.48h-200.704q-20.48 0-20.48 20.48z" horiz-adv-x="804" />
<glyph unicode="&#xe01a;" d="M434.176 371.2l-303.104-302.080q-112.64 131.072-112.64 302.080t112.64 302.080zM479.232 411.136l-370.688 368.64q160.768 133.12 370.688 145.408v-514.048zM535.552 810.496q146.432-21.504 243.712-132.608t97.28-262.656q0-167.936-117.76-286.208t-284.672-118.272q-130.048 0-238.592 79.872l300.032 295.936v423.936z" horiz-adv-x="890" />
<glyph unicode="&#xe01b;" d="M500.736 939.52q133.12 2.048 247.296-62.464t181.248-177.152 69.12-245.76-62.464-247.296-177.152-181.248-245.76-69.12-247.296 62.464-181.248 177.152-69.12 245.76 62.464 247.296 177.152 181.248 245.76 69.12zM512 59.904q160.768 2.048 272.896 117.248t110.080 275.968-117.248 272.896-275.968 110.080-272.896-117.248-110.080-275.968 117.248-272.896 275.968-110.080zM323.584 448q0-36.864 15.872-59.904t47.616-23.040q40.96 0 57.344 39.936l58.368-29.696q-17.408-32.768-49.664-53.248t-74.24-20.48q-64.512 0-102.4 39.424t-37.888 107.008q0 64.512 38.4 105.472t99.84 40.96q86.016 0 124.928-68.608l-63.488-32.768q-18.432 37.888-51.2 37.888-63.488 0-63.488-82.944zM594.944 448q0-36.864 15.872-59.904t47.616-23.040q41.984 0 58.368 39.936l58.368-29.696q-41.984-73.728-123.904-73.728-64.512 0-102.4 39.424t-37.888 107.008q0 64.512 38.4 105.472t99.84 40.96q86.016 0 123.904-68.608l-61.44-32.768q-18.432 37.888-53.248 37.888-63.488 0-63.488-82.944z" horiz-adv-x="1010" />
<glyph unicode="&#xe01c;" d="M681.984 425.472l165.888 165.888h-110.592q-27.648 84.992-109.056 140.8t-171.52 55.808q-120.832 0-206.848-85.504t-86.016-206.336 86.016-205.824 206.336-84.992 205.312 84.992l-57.344 65.536q-60.416-59.392-143.36-59.392-83.968 0-143.36 59.392t-59.392 143.36 59.392 143.36 143.36 59.392q88.064 0 143.36-59.392 8.192-7.168 11.264-14.848t5.632-18.944 5.632-17.408h-110.592zM921.6 499.2q0-124.928-61.952-230.912t-167.936-167.936-230.912-61.952-230.912 61.952-167.936 167.936-61.952 230.912 61.952 230.912 167.936 167.936 230.912 61.952 230.912-61.952 167.936-167.936 61.952-230.912z" horiz-adv-x="918" />
<glyph unicode="&#xe01d;" d="M379.904 554.496h95.232l-149.504 243.712-149.504-243.712h95.232v-271.36h108.544v271.36zM595.968 228.864l149.504 218.112h-95.232v269.312h-108.544v-269.312h-95.232zM921.6 499.712q0-125.44-61.952-230.912t-167.936-167.424-230.912-61.952-230.912 61.952-167.936 167.424-61.952 230.912 61.952 231.424 167.936 167.936 230.912 61.952 230.912-61.952 167.936-167.936 61.952-231.424z" horiz-adv-x="918" />
<glyph unicode="&#xe01e;" d="M147.456 477.696l291.84 124.928v88.064l-291.84 123.904v-91.136l192.512-77.824-192.512-76.8v-91.136zM481.28 407.040h292.864v70.656h-292.864v-70.656zM1253.376 960v-921.6h-1253.376v921.6h1253.376z" horiz-adv-x="1250" />
<glyph unicode="&#xe01f;" d="M546.816 887.296q11.264 0 19.456-8.704t8.192-18.944v-702.464q0-32.768-24.064-57.344t-57.856-24.576h-282.624q-33.792 0-57.856 24.576t-24.064 57.344v702.464q0 10.24 8.192 18.944t18.432 8.704h392.192zM512 756.224h-321.536v-248.832h321.536v248.832zM285.696 160.256v56.32h-95.232q0-24.576 15.36-40.448t39.936-15.872h39.936zM285.696 241.152v53.248h-95.232v-53.248h95.232zM285.696 318.976v53.248h-95.232v-53.248h95.232zM285.696 396.8v53.248h-95.232v-53.248h95.232zM397.312 160.256v56.32h-91.136v-56.32h91.136zM397.312 241.152v53.248h-91.136v-53.248h91.136zM397.312 318.976v53.248h-91.136v-53.248h91.136zM397.312 396.8v53.248h-91.136v-53.248h91.136zM418.816 160.256h36.864q25.6 0 40.96 15.872t15.36 40.448h-93.184v-56.32zM512 241.152v53.248h-93.184v-53.248h93.184zM512 318.976v53.248h-93.184v-53.248h93.184zM512 396.8v53.248h-93.184v-53.248h93.184zM318.464 832q-16.384 0-16.384-16.384 0-18.432 16.384-18.432h65.536q15.36 0 15.36 18.432 0 16.384-15.36 16.384h-65.536z" horiz-adv-x="700" />
<glyph unicode="&#xe020;" d="M755.712 972.288q41.984 0 71.168-29.696t29.184-72.704v-690.176q0-43.008-29.184-72.704t-71.168-29.696h-526.336q-43.008 0-72.192 29.696t-29.184 72.704v690.176q0 43.008 29.184 72.704t72.192 29.696h526.336zM733.184 235.008v614.4h-482.304v-614.4h482.304zM492.544 110.080q20.48 0 34.816 14.848t14.336 34.304q0 20.48-13.824 34.304t-35.328 13.824-34.816-13.824-13.312-34.304q0-19.456 13.824-34.304t34.304-14.848z" horiz-adv-x="982" />
<glyph unicode="&#xe021;" d="M486.4-1.536v117.76l-153.6-58.368-15.36 26.624 168.96 103.424v59.392h-324.608q-19.456 0-33.28 13.312t-13.824 32.768q0 17.408 12.288 30.208t30.72 15.872v423.936q-18.432 1.024-30.72 13.824t-12.288 30.208q0 19.456 13.824 32.768t33.28 13.312h333.824l18.432 50.176h12.288l18.432-50.176h339.968q18.432 0 32.256-13.312t13.824-32.768-13.824-32.768-32.256-13.312v-421.888q18.432 0 32.256-13.312t13.824-32.768-13.824-32.768-32.256-13.312h-335.872v-59.392l169.984-103.424-14.336-26.624-155.648 58.368v-117.76q0-13.312-9.216-23.040t-22.528-9.728q-14.336 0-22.528 9.728t-8.192 23.040zM825.344 343.552v413.696h-609.28v-413.696h609.28z" horiz-adv-x="1042" />
<glyph unicode="&#xe022;" d="M314.368 127.488v209.92q0 26.624 10.24 26.624 11.264-6.144 24.064-16.384t17.92-10.24q10.24-10.24 43.008-10.24 36.864 0 57.344 36.864t20.48 78.336-20.992 78.336-56.832 36.864q-31.744 0-53.248-15.36-26.624-21.504-31.744-21.504-10.24 10.24-10.24 26.624v104.448q0 47.104 62.464 57.344h110.592q21.504-5.12 36.864-4.096 26.624 0 26.624 15.36-6.144 5.12-16.384 17.92t-10.24 18.944q-10.24 10.24-10.24 40.96 0 36.864 36.864 57.856t78.336 20.992 78.336-20.992 36.864-57.856q0-30.72-15.36-52.224l-21.504-25.6q6.144-16.384 47.104-15.36h83.968q47.104 10.24 73.728-6.144 31.744-15.36 31.744-47.104v-104.448q0-26.624-11.264-26.624-10.24 6.144-23.552 16.384t-17.408 10.24q-11.264 10.24-43.008 10.24-36.864 0-57.856-36.864t-20.992-78.336 21.504-78.336 57.344-36.864q26.624 0 58.368 15.36 20.48 21.504 25.6 21.504 11.264-11.264 11.264-26.624v-209.92q0-52.224-52.224-52.224h-157.696q-26.624 0-26.624 15.36 6.144 6.144 16.384 18.944t10.24 17.92q10.24 10.24 10.24 41.984 0 36.864-36.864 57.856t-78.336 20.992-78.336-20.992-36.864-57.856q0-31.744 15.36-52.224l21.504-26.624q-6.144-15.36-26.624-15.36h-157.696q-52.224 0-52.224 52.224z" horiz-adv-x="1254" />
<glyph unicode="&#xe023;" d="M0.512 312.832q-1.536 60.416 2.048 120.832t13.824 112.64q48.128 3.072 100.864 3.072t96.768-10.24q7.168-40.96 11.264-98.304t5.632-118.784 0.512-119.296-5.12-100.864q-19.456-3.072-44.544-3.584t-52.736 1.024-54.272 2.048-48.128 0.512q-10.24 40.96-17.408 95.744t-8.704 115.2zM98.304 182.784q0-17.408 11.776-29.184t29.184-11.776 28.672 11.776 11.264 29.184q0 15.36-11.264 27.136t-28.672 11.776-29.184-11.776-11.776-27.136zM259.072 517.632q23.552 10.24 37.888 20.48t26.112 23.040 24.576 28.16 33.28 36.864q16.384 17.408 30.208 28.672t25.088 21.504 20.48 21.504 18.432 27.648q17.408 31.744 23.040 70.144t13.824 73.216q0 7.168 7.168 12.288 20.48 3.072 37.888-4.096t30.208-18.944 20.992-28.16 11.264-29.696q7.168-35.84-1.024-64.512t-20.48-54.272l-24.576-50.176q-11.264-24.576-12.288-51.2 23.552-10.24 56.32-10.752t68.096 1.536 68.608 2.048 56.32-9.216 30.72-31.232-5.632-65.024q0-2.048-2.048-5.12l-6.144-8.192q-3.072-5.12-5.12-10.24l-2.048-3.072q12.288-11.264 17.408-24.576t5.12-21.504q1.024-41.984-34.816-73.728 11.264-15.36 12.288-33.28t-4.096-34.304-15.36-28.672-23.552-18.432q6.144-36.864-6.656-62.976t-37.888-41.472-60.928-22.016-74.752-6.656-78.336 5.632-72.192 14.848q-21.504 7.168-41.984 15.36l-41.984 15.36q-20.48 8.192-44.032 12.8t-49.152-0.512q2.048 41.984 2.56 91.648t-1.024 100.864-4.608 99.84-7.168 88.576z" horiz-adv-x="840" />
<glyph unicode="&#xe024;" d="M0 557.056q0 19.968 15.36 35.328l52.224 53.248q15.36 15.36 35.84 15.36t35.84-15.36l267.264-268.288 263.168 268.288q14.336 15.36 34.816 15.36t35.84-15.36l53.248-53.248q14.336-15.36 15.36-35.328t-14.336-35.328l-355.328-354.304q-14.336-15.36-34.816-15.36t-35.84 15.36l-353.28 354.304q-15.36 15.36-15.36 35.328z" horiz-adv-x="804" />
<glyph unicode="&#xe025;" d="M0 477.184q0 13.824 8.192 23.040l344.064 371.712q8.192 10.24 21.504 10.24 6.144 0 12.288-3.072 18.432-8.192 18.432-30.72v-742.4q0-21.504-18.432-30.72-19.456-8.192-33.792 8.192l-344.064 370.688q-8.192 9.216-8.192 23.040zM404.48 477.184q0 13.824 8.192 23.040l344.064 371.712q7.168 10.24 21.504 10.24 5.12 0 12.288-3.072 17.408-8.192 17.408-30.72v-742.4q0-21.504-17.408-30.72-19.456-8.192-33.792 8.192l-344.064 370.688q-8.192 9.216-8.192 23.040z" horiz-adv-x="804" />
<glyph unicode="&#xe026;" d="M0 476.16q0 19.968 15.36 35.328l353.28 354.304q15.36 15.36 35.84 15.36t34.816-15.36l53.248-53.248q15.36-14.336 15.36-34.816t-15.36-35.84l-267.264-268.288 267.264-263.168q15.36-15.36 15.36-35.328t-15.36-35.328l-53.248-53.248q-14.336-15.36-34.816-15.36t-35.84 15.36l-353.28 354.304q-15.36 15.36-15.36 35.328z" horiz-adv-x="504" />
<glyph unicode="&#xe027;" d="M0 821.76v39.936q0 20.48 20.48 20.48h121.856q8.192 0 19.456-2.56t19.456-4.608q3.072-2.048 7.168-7.168t8.192-12.288 6.656-14.336 3.584-11.264l14.336-65.536h708.608q18.432 0 30.208-13.824t8.704-31.232l-56.32-304.128q-4.096-13.312-14.848-22.528t-25.088-9.216h-570.368l18.432-88.064q2.048-8.192 8.704-13.824t15.872-5.632h450.56q8.192 0 14.336-5.632t6.144-14.848v-40.96q0-8.192-6.144-13.824t-14.336-5.632h-484.352q-8.192 0-18.944 1.536t-18.944 4.608q-3.072 2.048-7.168 7.68t-8.192 12.8-6.656 13.824-3.584 11.776l-112.64 534.528q-3.072 8.192-9.728 13.824t-15.872 5.632h-89.088q-20.48 0-20.48 20.48zM306.176 133.632q0 24.576 17.92 43.008t42.496 18.432q25.6 0 43.52-18.432t17.92-43.008-17.92-42.496-43.52-17.92q-24.576 0-42.496 17.92t-17.92 42.496zM649.216 133.632q0 24.576 17.408 43.008t42.496 18.432 43.008-18.432 17.92-43.008-17.92-42.496-43.008-17.92-42.496 17.92-17.408 42.496z" horiz-adv-x="966" />
<glyph unicode="&#xe028;" d="M0 174.592q0 20.48 15.36 35.84l267.264 268.288-267.264 263.168q-15.36 15.36-15.36 35.84t15.36 34.816l52.224 53.248q15.36 15.36 35.84 15.36t35.84-15.36l265.216-265.216 265.216 265.216q14.336 15.36 34.816 15.36t35.84-15.36l53.248-53.248q14.336-14.336 14.336-34.816t-14.336-35.84l-267.264-268.288 267.264-263.168q14.336-15.36 14.336-35.328t-14.336-35.328l-53.248-53.248q-15.36-15.36-35.84-15.36t-34.816 15.36l-265.216 266.24-266.24-266.24q-15.36-15.36-35.328-15.36t-35.328 15.36l-52.224 52.224q-15.36 15.36-15.36 35.84z" horiz-adv-x="804" />
<glyph unicode="&#xe029;" d="M157.696 337.408v314.368q0 68.608 44.544 113.152t112.128 44.544h577.536q67.584 0 112.128-44.544t44.544-113.152v-314.368q0-68.608-44.544-113.152t-112.128-44.544h-367.616l-157.696-156.672v156.672h-52.224q-67.584 0-112.128 44.544t-44.544 113.152zM262.144 337.408q0-52.224 52.224-52.224h577.536q52.224 0 52.224 52.224v314.368q0 52.224-52.224 53.248h-577.536q-52.224 0-52.224-53.248v-314.368zM314.368 495.104q0 31.744 23.552 54.784t55.296 23.040 55.296-23.040 23.552-54.784-23.552-55.296-55.296-23.552-55.296 23.552-23.552 55.296zM524.288 495.104q0 31.744 23.552 54.784t55.296 23.040 54.784-23.040 23.040-54.784-23.040-55.296-54.784-23.552-55.296 23.552-23.552 55.296zM734.208 495.104q0 31.744 23.552 54.784t54.784 23.040 55.296-23.040 24.064-54.784-24.064-55.296-55.296-23.552-54.784 23.552-23.552 55.296z" horiz-adv-x="1254" />
<glyph unicode="&#xe02a;" d="M0 478.72q0 77.824 29.696 152.064t89.088 133.632 133.632 88.576 152.064 29.184 152.064-29.184 133.632-88.576 88.576-133.632 29.184-152.064-29.184-152.064-88.576-133.632-133.632-89.088-152.064-29.696-152.064 29.696-133.632 89.088-89.088 133.632-29.696 152.064zM199.68 332.288l59.392-58.368q5.12-5.12 11.776-5.12t11.776 5.12l122.88 122.88 110.592-111.616q5.12-6.144 11.776-6.144t11.776 6.144l57.344 56.32q12.288 12.288 0 23.552l-111.616 111.616 123.904 123.904q11.264 12.288 0 23.552l-59.392 59.392q-12.288 12.288-23.552 0l-122.88-123.904-112.64 111.616q-11.264 12.288-23.552 0l-56.32-56.32q-5.12-6.144-5.12-12.288t5.12-12.288l111.616-110.592-122.88-123.904q-11.264-11.264 0-23.552z" horiz-adv-x="804" />
<glyph unicode="&#xe02b;" d="M0 93.696v323.584q0 8.192 6.144 14.336t14.336 6.144h120.832q8.192 0 14.336-6.144t6.144-14.336v-182.272h646.144v182.272q0 8.192 6.144 14.336t14.336 6.144h120.832q9.216 0 14.848-6.144t5.632-14.336v-323.584q0-20.48-20.48-20.48h-928.768q-20.48 0-20.48 20.48zM182.272 570.368q3.072 8.704 20.48 8.704h161.792v263.168q0 16.384 11.264 28.16t28.672 11.776h161.792q16.384 0 28.672-11.776t12.288-28.16v-263.168h161.792q15.36 0 18.944-8.704t-8.704-20.992l-265.216-266.24q-11.264-11.264-28.672-11.264t-29.696 11.264l-265.216 266.24q-11.264 12.288-8.192 20.992z" horiz-adv-x="966" />
<glyph unicode="&#xe02c;" d="M0 133.632v591.872q0 24.576 17.92 42.496t42.496 17.92h38.912v-74.752q0-29.696 20.992-50.688t50.688-20.992h16.384q30.72 0 52.224 20.992t21.504 50.688v74.752h62.464v-74.752q0-29.696 20.992-50.688t50.688-20.992h17.408q30.72 0 51.712 20.992t20.992 50.688v74.752h62.464v-74.752q0-29.696 21.504-50.688t51.2-20.992h16.384q30.72 0 51.712 20.992t20.992 50.688v74.752h38.912q24.576 0 41.984-17.92t17.408-42.496v-591.872q0-24.576-17.408-42.496t-41.984-17.92h-688.128q-24.576 0-42.496 17.92t-17.92 42.496zM80.896 154.112h647.168v429.056h-647.168v-429.056zM139.264 711.168v138.24q0 13.312 9.728 23.040t22.016 9.728h16.384q14.336 0 23.552-9.728t9.216-23.040v-138.24q0-12.288-9.216-21.504t-23.552-9.216h-16.384q-12.288 0-22.016 9.216t-9.728 21.504zM190.464 244.224q0 37.888 21.504 62.464t47.104 43.008l47.104 33.792q21.504 16.384 21.504 38.912 0 21.504-12.288 31.232t-30.72 9.728q-12.288 0-22.528-4.608t-17.408-12.8q-4.096-4.096-7.68-8.192t-6.656-9.216l-36.864 24.576q8.192 14.336 22.528 28.672 11.264 12.288 29.184 20.992t43.52 8.704q37.888 0 66.048-22.528t28.16-63.488q0-22.528-9.728-38.912t-25.088-30.208-32.768-25.088l-31.744-20.48q-15.36-11.264-25.6-23.040t-10.24-27.136h99.328v36.864h45.056v-78.848h-199.68q-1.024 7.168-1.536 13.312t-0.512 12.288zM364.544 711.168v138.24q0 13.312 9.216 23.040t21.504 9.728h17.408q13.312 0 23.040-9.728t9.728-23.040v-138.24q0-12.288-9.728-21.504t-23.040-9.216h-17.408q-12.288 0-21.504 9.216t-9.216 21.504zM428.032 429.568v75.776h201.728v-35.84l-125.952-250.88h-55.296l115.712 228.352q3.072 9.216 6.144 12.288l3.072 4.096v1.024q-3.072 0-5.12-1.024h-95.232v-33.792h-45.056zM588.8 711.168v138.24q0 13.312 9.216 23.040t22.528 9.728h16.384q13.312 0 23.040-9.728t9.728-23.040v-138.24q0-12.288-9.728-21.504t-23.040-9.216h-16.384q-13.312 0-22.528 9.216t-9.216 21.504z" horiz-adv-x="804" />
<glyph unicode="&#xe02d;" d="M0 437.76v80.896q0 8.192 6.144 13.824t14.336 5.632h86.016q10.24 44.032 31.744 83.456t52.224 70.144 70.144 52.224 83.456 30.72v87.040q0 20.48 20.48 20.48h80.896q8.192 0 13.824-6.144t5.632-14.336v-87.040q44.032-9.216 83.456-30.72t70.144-52.224 52.224-70.144 30.72-83.456h86.016q9.216 0 14.848-5.632t5.632-13.824v-80.896q0-20.48-20.48-20.48h-86.016q-9.216-44.032-30.72-83.456t-52.224-70.144-70.144-52.224-83.456-31.744v-86.016q0-8.192-5.632-14.336t-13.824-6.144h-80.896q-20.48 0-20.48 20.48v86.016q-44.032 10.24-83.456 31.744t-70.144 52.224-52.224 70.144-31.744 83.456h-86.016q-20.48 0-20.48 20.48zM191.488 417.28q15.36-56.32 55.808-96.768t96.768-54.784v91.136q0 8.192 5.632 13.824t14.848 5.632h80.896q8.192 0 13.824-5.632t5.632-13.824v-91.136q55.296 14.336 95.744 54.784t55.808 96.768h-90.112q-20.48 0-20.48 20.48v80.896q0 8.192 5.632 13.824t14.848 5.632h90.112q-15.36 56.32-55.808 96.768t-95.744 54.784v-90.112q0-9.216-5.632-14.848t-13.824-5.632h-80.896q-20.48 0-20.48 20.48v90.112q-56.32-14.336-96.768-54.784t-55.808-96.768h92.16q8.192 0 13.824-5.632t5.632-13.824v-80.896q0-8.192-5.632-14.336t-13.824-6.144h-92.16z" horiz-adv-x="804" />
<glyph unicode="&#xe02e;" d="M-0.512 260.096q-0.512 19.968 14.848 35.328l354.304 354.304q15.36 15.36 35.84 15.36t34.816-15.36l354.304-354.304q14.336-15.36 14.336-35.328t-14.336-34.304l-53.248-54.272q-15.36-15.36-35.84-15.36t-34.816 15.36l-267.264 268.288-263.168-268.288q-15.36-15.36-35.84-15.36t-35.84 15.36l-52.224 54.272q-15.36 14.336-15.872 34.304z" horiz-adv-x="804" />
<glyph unicode="&#xe02f;" d="M0 93.696v323.584q0 8.192 6.144 14.336t14.336 6.144h120.832q8.192 0 14.336-6.144t6.144-14.336v-182.272h646.144v182.272q0 8.192 6.144 14.336t14.336 6.144h120.832q9.216 0 14.848-6.144t5.632-14.336v-323.584q0-20.48-20.48-20.48h-928.768q-20.48 0-20.48 20.48zM182.272 584.192q-3.072 8.192 8.192 19.456l265.216 266.24q12.288 12.288 29.696 12.288t28.672-12.288l266.24-266.24q12.288-11.264 8.192-19.456t-19.456-8.192h-161.792v-263.168q0-17.408-12.288-29.184t-28.672-11.776h-161.792q-17.408 0-28.672 11.776t-11.264 29.184v263.168h-161.792q-17.408 0-20.48 8.192z" horiz-adv-x="966" />
<glyph unicode="&#xe030;" d="M0 175.616q0 20.48 15.36 35.84l267.264 267.264-267.264 264.192q-15.36 15.36-15.36 35.328t15.36 34.304l52.224 54.272q15.36 15.36 35.84 15.36t35.84-15.36l353.28-354.304q15.36-15.36 15.36-35.84t-15.36-35.84l-353.28-353.28q-15.36-15.36-35.84-15.36t-35.84 15.36l-52.224 52.224q-15.36 15.36-15.36 35.84z" horiz-adv-x="504" />
<glyph unicode="&#xe031;" d="M0 133.632v688.128q0 24.576 17.92 42.496t42.496 17.92h848.896q25.6 0 43.008-17.92t17.408-42.496v-688.128q0-24.576-17.408-42.496t-43.008-17.92h-848.896q-24.576 0-42.496 17.92t-17.92 42.496zM80.896 154.112h807.936v448.512q-15.36-16.384-29.696-25.6l-66.56-49.152-68.608-53.248-38.912-30.72-34.816-26.624-7.168-4.096-7.168-7.168-31.744-23.552q-16.384-12.288-35.84-23.552t-40.448-18.432-43.52-7.168q-21.504 0-42.496 7.168t-39.936 18.432-36.352 23.552-31.744 23.552q-4.096 4.096-7.168 6.656t-6.144 4.608l-35.84 26.624-38.912 30.72-69.632 53.248q-33.792 26.624-65.536 49.152-13.312 9.216-29.696 25.6v-448.512zM80.896 766.464q0-15.36 6.656-32.256t17.92-34.304 24.576-32.768 28.672-25.6l52.224-39.936 56.32-40.96 54.272-41.984 70.656-55.296 30.72-21.504q15.36-11.264 31.232-19.456t30.208-8.192h2.048q13.312 0 29.184 8.192t31.232 19.456l30.72 21.504 23.552 18.432 48.128 36.864 53.248 41.984 56.32 40.96 53.248 39.936q13.312 10.24 27.648 25.6t25.6 32.768 17.408 34.304 6.144 32.256v34.816h-807.936v-34.816z" horiz-adv-x="966" />
<glyph unicode="&#xe032;" d="M0 633.344q0 68.608 21.504 116.224t56.832 76.8 79.36 42.496 89.088 13.312q32.768 0 64-10.752t57.856-27.136 48.64-35.328 38.4-35.328q16.384 16.384 38.4 35.328t49.152 35.328 58.368 27.136 62.976 10.752q46.080 0 90.112-13.312t78.848-42.496 56.832-76.8 22.016-116.224q0-48.128-17.92-90.624t-38.912-74.752-40.448-51.712l-19.456-20.48-311.296-310.272q-12.288-12.288-28.672-12.288t-27.648 12.288l-312.32 310.272-19.456 20.48q-18.432 19.456-39.424 51.712t-38.912 74.752-17.92 90.624z" horiz-adv-x="908" />
<glyph unicode="&#xe033;" d="M0 439.808v75.776q0 20.48 14.336 34.816t34.816 14.336h267.264v266.24q0 21.504 14.336 36.352t35.84 14.848h75.776q20.48 0 34.816-14.848t14.336-35.328v-267.264h267.264q20.48 0 34.816-14.336t14.336-34.816v-75.776q0-20.48-14.336-34.816t-34.816-14.336h-267.264v-266.24q0-21.504-14.336-36.352t-34.816-14.848h-75.776q-20.48 0-35.328 14.848t-14.848 35.328v267.264h-266.24q-21.504 0-35.84 13.824t-14.336 35.328z" horiz-adv-x="804" />
<glyph unicode="&#xe034;" d="M0 144.896q0 109.568 37.888 206.848t114.688 169.984 195.072 115.2 280.064 43.52v153.6q0 37.888 18.432 46.080t47.104-18.432l258.048-260.096q18.432-17.408 18.432-43.008 0-24.576-18.432-43.008l-258.048-260.096q-26.624-26.624-46.080-18.432t-19.456 45.056v174.080q-138.24-1.024-242.688-29.696t-176.64-77.824-113.152-115.2-52.224-142.848q-2.048-17.408-19.456-17.408h-1.024q-17.408 0-19.456 17.408-3.072 26.624-3.072 54.272z" horiz-adv-x="966" />
<glyph unicode="&#xe035;" d="M0 476.672q0 20.48 15.36 35.84l52.224 52.224q15.36 15.36 35.84 15.36t35.84-15.36l177.152-177.152v443.392q0 20.48 14.848 35.328t35.328 14.848h75.776q21.504 0 35.328-14.848t13.824-35.328v-443.392l179.2 177.152q14.336 15.36 34.304 15.36t35.328-15.36l54.272-52.224q15.36-15.36 15.36-35.84t-15.36-35.84l-355.328-353.28q-14.336-15.36-34.816-15.36t-35.84 15.36l-353.28 353.28q-15.36 15.36-15.36 35.84z" horiz-adv-x="804" />
<glyph unicode="&#xe036;" d="M0 114.176v304.128q0 17.408 4.608 39.936t11.776 37.888l149.504 349.184q6.144 15.36 23.040 26.112t33.28 10.752h526.336q15.36 0 32.256-10.752t23.040-26.112l150.528-349.184q6.144-15.36 10.752-37.888t4.608-39.936v-304.128q0-17.408-11.776-29.184t-28.16-11.776h-888.832q-17.408 0-29.184 11.776t-11.776 29.184zM124.928 438.784h203.776l60.416-121.856h201.728l61.44 121.856h192.512q-1.024 2.048-1.024 4.608t-1.024 5.632l-134.144 312.32h-446.464l-135.168-314.368q-1.024-1.024-1.024-3.584t-1.024-4.608z" horiz-adv-x="966" />
</font>
</defs>
</svg>
